<svg width="48" height="48" viewBox="0 0 48 48" fill="none" xmlns="http://www.w3.org/2000/svg">
<path d="M30.8976 15.8794L26.4192 18.673C26.4192 18.673 24.8928 17.761 24.0216 15.7198C23.1492 13.6786 23.13 10.231 24.0216 8.46705C24.9132 6.70305 28.0044 2.44305 34.2672 4.08705C39.816 5.59305 40.1484 11.3794 40.1484 11.3794C40.1484 11.3794 40.7664 16.591 36.0108 19.465C31.2552 22.7146 27.9456 23.8642 28.302 26.2426C26.9196 27.1402 24.9084 28.615 24.0024 29.7106C23.928 29.617 23.1348 28.6666 23.214 26.467C23.214 24.9226 24.0024 23.4886 24.0024 23.4886C24.0024 23.4886 24.9336 20.8138 31.632 17.167C32.1276 16.8898 36.546 14.8282 35.3376 11.083C35.2188 10.7062 33.9708 8.36865 31.3344 8.80425C31.116 8.84385 28.6788 9.29985 28.302 11.9554C28.2816 12.1738 27.9252 14.6698 30.8976 15.8794Z" fill="#5C5C5C"/>
<path d="M17.0886 15.8794L21.567 18.673C21.567 18.673 23.0934 17.761 23.9646 15.7198C24.8358 13.6786 24.8562 10.231 23.9646 8.46704C23.073 6.70304 19.9818 2.44305 13.719 4.08705C8.17022 5.59425 7.83782 11.3806 7.83782 11.3806C7.83782 11.3806 7.21982 16.5922 11.9754 19.4662C16.731 22.7158 20.0406 23.8654 19.6842 26.2438C21.0666 27.1414 23.0778 28.6162 23.9838 29.7118C24.0582 29.6182 24.8514 28.6678 24.7722 26.4682C24.7722 24.9238 23.9838 23.4898 23.9838 23.4898C23.9838 23.4898 23.0526 20.815 16.3542 17.1682C15.8586 16.891 11.4402 14.8294 12.6486 11.0842C12.7674 10.7074 14.0154 8.36984 16.6518 8.80544C16.8702 8.84504 19.3074 9.30104 19.6842 11.9566C19.7034 12.1738 20.061 14.6698 17.0886 15.8794Z" fill="#5C5C5C"/>
<path d="M32.6282 32.1203L37.1066 29.3267C37.1066 29.3267 38.633 30.2387 39.5042 32.2799C40.3766 34.3211 40.3958 37.7687 39.5042 39.5327C38.6126 41.2967 35.5214 45.5567 29.2586 43.9127C23.7098 42.4067 23.3774 36.6203 23.3774 36.6203C23.3774 36.6203 22.7594 31.4087 27.515 28.5347C32.2706 25.2851 35.5802 24.1355 35.2238 21.7571C36.6062 20.8595 38.6174 19.3847 39.5234 18.2891C39.5978 18.3827 40.2722 19.4255 40.193 21.6251C40.193 23.1695 39.5234 24.5111 39.5234 24.5111C39.5234 24.5111 38.5922 27.1859 31.8938 30.8327C31.3982 31.1099 26.9798 33.1715 28.1882 36.9167C28.307 37.2935 29.555 39.6311 32.1914 39.1955C32.4098 39.1559 34.847 38.6999 35.2238 36.0443C35.2442 35.8259 35.6006 33.3299 32.6282 32.1203Z" fill="#5C5C5C"/>
<path d="M15.372 32.1203L10.8936 29.3267C10.8936 29.3267 9.36724 30.2387 8.49604 32.2799C7.62364 34.3211 7.60444 37.7687 8.49604 39.5327C9.38764 41.2967 12.4788 45.5567 18.7416 43.9127C24.2904 42.4067 24.6228 36.6203 24.6228 36.6203C24.6228 36.6203 25.2408 31.4087 20.4852 28.5347C15.7296 25.2851 12.42 24.1355 12.7764 21.7571C11.394 20.8595 9.38284 19.3847 8.47684 18.2891C8.40244 18.3827 7.72804 19.4255 7.80724 21.6251C7.80724 23.1695 8.47684 24.5111 8.47684 24.5111C8.47684 24.5111 9.40804 27.1859 16.1064 30.8327C16.602 31.1099 21.0204 33.1715 19.812 36.9167C19.6932 37.2935 18.4452 39.6311 15.8088 39.1955C15.5904 39.1559 13.1532 38.6999 12.7764 36.0443C12.756 35.8259 12.3996 33.3299 15.372 32.1203Z" fill="#5C5C5C"/>
</svg>
