<svg width="48" height="48" viewBox="0 0 48 48" fill="none" xmlns="http://www.w3.org/2000/svg">
<path d="M30.8976 15.8796L26.4192 18.6732C26.4192 18.6732 24.8928 17.7612 24.0216 15.72C23.1492 13.6788 23.13 10.2312 24.0216 8.46723C24.9132 6.70323 28.0044 2.44323 34.2672 4.08723C39.816 5.59323 40.1484 11.3796 40.1484 11.3796C40.1484 11.3796 40.7664 16.5912 36.0108 19.4652C31.2552 22.7148 27.9456 23.8644 28.302 26.2428C26.9196 27.1404 24.9084 28.6152 24.0024 29.7108C23.928 29.6172 23.1348 28.6668 23.214 26.4672C23.214 24.9228 24.0024 23.4888 24.0024 23.4888C24.0024 23.4888 24.9336 20.814 31.632 17.1672C32.1276 16.89 36.546 14.8284 35.3376 11.0832C35.2188 10.7064 33.9708 8.36883 31.3344 8.80443C31.116 8.84403 28.6788 9.30003 28.302 11.9556C28.2816 12.174 27.9252 14.67 30.8976 15.8796Z" fill="white"/>
<path d="M17.0884 15.8796L21.5668 18.6732C21.5668 18.6732 23.0932 17.7612 23.9644 15.72C24.8356 13.6788 24.856 10.2312 23.9644 8.46723C23.0728 6.70323 19.9816 2.44323 13.7188 4.08723C8.16998 5.59443 7.83758 11.3808 7.83758 11.3808C7.83758 11.3808 7.21958 16.5924 11.9752 19.4664C16.7308 22.716 20.0404 23.8656 19.684 26.244C21.0664 27.1416 23.0776 28.6164 23.9836 29.712C24.058 29.6184 24.8512 28.668 24.772 26.4684C24.772 24.924 23.9836 23.49 23.9836 23.49C23.9836 23.49 23.0524 20.8152 16.354 17.1684C15.8584 16.8912 11.44 14.8296 12.6484 11.0844C12.7672 10.7076 14.0152 8.37003 16.6516 8.80563C16.87 8.84523 19.3072 9.30123 19.684 11.9568C19.7032 12.174 20.0608 14.67 17.0884 15.8796Z" fill="white"/>
<path d="M32.628 32.1204L37.1064 29.3268C37.1064 29.3268 38.6328 30.2388 39.504 32.28C40.3764 34.3212 40.3956 37.7688 39.504 39.5328C38.6124 41.2968 35.5212 45.5568 29.2584 43.9128C23.7096 42.4068 23.3772 36.6204 23.3772 36.6204C23.3772 36.6204 22.7592 31.4088 27.5148 28.5348C32.2704 25.2852 35.58 24.1356 35.2236 21.7572C36.606 20.8596 38.6172 19.3848 39.5232 18.2892C39.5976 18.3828 40.272 19.4256 40.1928 21.6252C40.1928 23.1696 39.5232 24.5112 39.5232 24.5112C39.5232 24.5112 38.592 27.186 31.8936 30.8328C31.398 31.11 26.9796 33.1716 28.188 36.9168C28.3068 37.2936 29.5548 39.6312 32.1912 39.1956C32.4096 39.156 34.8468 38.7 35.2236 36.0444C35.244 35.826 35.6004 33.33 32.628 32.1204Z" fill="white"/>
<path d="M15.372 32.1204L10.8936 29.3268C10.8936 29.3268 9.36718 30.2388 8.49598 32.28C7.62358 34.3212 7.60438 37.7688 8.49598 39.5328C9.38758 41.2968 12.4788 45.5568 18.7416 43.9128C24.2904 42.4068 24.6228 36.6204 24.6228 36.6204C24.6228 36.6204 25.2408 31.4088 20.4852 28.5348C15.7296 25.2852 12.42 24.1356 12.7764 21.7572C11.394 20.8596 9.38278 19.3848 8.47678 18.2892C8.40238 18.3828 7.72797 19.4256 7.80717 21.6252C7.80717 23.1696 8.47678 24.5112 8.47678 24.5112C8.47678 24.5112 9.40798 27.186 16.1064 30.8328C16.602 31.11 21.0204 33.1716 19.812 36.9168C19.6932 37.2936 18.4452 39.6312 15.8088 39.1956C15.5904 39.156 13.1532 38.7 12.7764 36.0444C12.756 35.826 12.3996 33.33 15.372 32.1204Z" fill="white"/>
</svg>
