<svg width="184" height="184" viewBox="0 0 184 184" fill="none" xmlns="http://www.w3.org/2000/svg">
<path d="M118.441 60.8715L101.274 71.5803C101.274 71.5803 95.4223 68.0843 92.0827 60.2597C88.7385 52.4351 88.6649 39.2193 92.0827 32.4573C95.5005 25.6953 107.35 9.36534 131.358 15.6673C152.628 21.4403 153.902 43.6215 153.902 43.6215C153.902 43.6215 156.271 63.5993 138.041 74.6163C119.812 87.0732 107.125 91.4799 108.491 100.597C103.192 104.038 95.4821 109.691 92.0091 113.891C91.7239 113.532 88.6833 109.889 88.9869 101.457C88.9869 95.5371 92.0091 90.0401 92.0091 90.0401C92.0091 90.0401 95.5787 79.7867 121.256 65.8073C123.156 64.7447 140.093 56.8419 135.461 42.4853C135.005 41.0409 130.221 32.0801 120.115 33.7499C119.278 33.9017 109.935 35.6497 108.491 45.8295C108.413 46.6667 107.047 56.2347 118.441 60.8715Z" fill="#B68C13"/>
<path d="M65.5053 60.8715L82.6725 71.5803C82.6725 71.5803 88.5237 68.0843 91.8633 60.2597C95.2029 52.4351 95.2811 39.2193 91.8633 32.4573C88.4455 25.6953 76.5959 9.36534 52.5885 15.6673C31.3181 21.4449 30.0439 43.6261 30.0439 43.6261C30.0439 43.6261 27.6749 63.6039 45.9047 74.6209C64.1345 87.0777 76.8213 91.4845 75.4551 100.602C80.7543 104.042 88.4639 109.696 91.9369 113.896C92.2221 113.537 95.2627 109.894 94.9591 101.462C94.9591 95.5417 91.9369 90.0447 91.9369 90.0447C91.9369 90.0447 88.3673 79.7913 62.6901 65.8119C60.7903 64.7493 43.8531 56.8465 48.4853 42.4899C48.9407 41.0455 53.7247 32.0847 63.8309 33.7545C64.6681 33.9063 74.0107 35.6543 75.4551 45.8341C75.5287 46.6667 76.8995 56.2347 65.5053 60.8715Z" fill="#B68C13"/>
<path d="M125.074 123.128L142.241 112.419C142.241 112.419 148.092 115.915 151.432 123.74C154.776 131.564 154.85 144.78 151.432 151.542C148.014 158.304 136.165 174.634 112.157 168.332C90.8867 162.559 89.6125 140.378 89.6125 140.378C89.6125 140.378 87.2435 120.4 105.473 109.383C123.703 96.9264 136.39 92.5196 135.024 83.4024C140.323 79.9616 148.033 74.3082 151.506 70.1084C151.791 70.4672 154.376 74.4646 154.072 82.8964C154.072 88.8166 151.506 93.9594 151.506 93.9594C151.506 93.9594 147.936 104.213 122.259 118.192C120.359 119.255 103.422 127.158 108.054 141.514C108.509 142.959 113.293 151.919 123.4 150.25C124.237 150.098 133.579 148.35 135.024 138.17C135.102 137.333 136.468 127.765 125.074 123.128Z" fill="#B68C13"/>
<path d="M58.9259 123.128L41.7587 112.419C41.7587 112.419 35.9075 115.915 32.5679 123.74C29.2237 131.564 29.1501 144.78 32.5679 151.542C35.9857 158.304 47.8353 174.634 71.8427 168.332C93.1132 162.559 94.3874 140.378 94.3874 140.378C94.3874 140.378 96.7564 120.4 78.5266 109.383C60.2967 96.9264 47.6099 92.5196 48.9761 83.4024C43.6769 79.9616 35.9673 74.3082 32.4943 70.1084C32.2091 70.4672 29.6239 74.4646 29.9275 82.8964C29.9275 88.8166 32.4943 93.9594 32.4943 93.9594C32.4943 93.9594 36.0639 104.213 61.7411 118.192C63.6409 119.255 80.5782 127.158 75.9459 141.514C75.4905 142.959 70.7065 151.919 60.6003 150.25C59.7631 150.098 50.4205 148.35 48.9761 138.17C48.8979 137.333 47.5317 127.765 58.9259 123.128Z" fill="#B68C13"/>
</svg>
