<?xml version="1.0" encoding="iso-8859-1"?>
<!-- Generator: Adobe Illustrator 19.0.0, SVG Export Plug-In . SVG Version: 6.00 Build 0)  -->
<svg version="1.1" id="Layer_1" xmlns="http://www.w3.org/2000/svg" xmlns:xlink="http://www.w3.org/1999/xlink" x="0px" y="0px"
	 viewBox="0 0 512.001 512.001" style="enable-background:new 0 0 512.001 512.001;" xml:space="preserve">
<g>
	<g>
		<path d="M256,193.865c-30.918,0-56.073,25.155-56.073,56.074c0,30.918,25.155,56.073,56.073,56.073
			c30.918,0,56.073-25.155,56.073-56.073C312.073,219.02,286.918,193.865,256,193.865z M256.002,267.344
			c-9.596,0-17.405-7.808-17.405-17.405c0-9.597,7.808-17.406,17.405-17.406c9.596,0,17.405,7.808,17.405,17.406
			C273.406,259.535,265.598,267.344,256.002,267.344z"/>
	</g>
</g>
<g>
	<g>
		<path d="M506.079,144.202C438.543,79.145,349.731,43.316,256.004,43.316c-0.005,0,0,0-0.005,0
			c-93.723,0-182.543,35.831-250.078,100.885c-7.69,7.406-7.919,19.645-0.513,27.336l91.427,94.934l102.306,106.229
			c-22.839,41.628,5.932,95.982,56.858,95.982c51.029,0,79.648-54.444,56.858-95.985c40.883-42.455,43.245-44.903,193.734-201.164
			C514,163.847,513.769,151.608,506.079,144.202z M256,430.017c-23.505,0-34.944-28.803-18.134-45.001
			c10.17-9.808,26.1-9.81,36.277,0.008C290.889,401.159,279.58,430.017,256,430.017z M285.037,345.843
			c-17.897-9.026-39.573-9.34-58.077,0.001l-89.11-92.529L256,135.164l118.15,118.15
			C366.499,261.256,295.916,334.547,285.037,345.843z M400.979,225.458L269.672,94.151c-7.543-7.545-19.794-7.551-27.342,0
			L111.023,225.458l-63.956-66.409c120.075-102.704,297.546-102.914,417.866,0L400.979,225.458z"/>
	</g>
</g>
<g>
</g>
<g>
</g>
<g>
</g>
<g>
</g>
<g>
</g>
<g>
</g>
<g>
</g>
<g>
</g>
<g>
</g>
<g>
</g>
<g>
</g>
<g>
</g>
<g>
</g>
<g>
</g>
<g>
</g>
</svg>
