<svg width="128" height="129" viewBox="0 0 128 129" fill="none" xmlns="http://www.w3.org/2000/svg">
<path d="M113.381 43.4527C113.314 43.4527 113.179 43.3848 113.112 43.3848C112.909 43.3848 112.707 43.4527 112.505 43.5884C109.608 45.2179 106.644 46.9153 103.747 48.6127C103.478 48.7484 103.411 48.8842 103.343 48.8842C102.939 49.2916 103.006 50.1742 103.411 50.7174C103.747 51.1927 104.421 51.6 104.96 51.2606C105.971 50.7174 107.048 50.1063 108.059 49.4953C108.531 49.2237 109.002 48.9521 109.474 48.6806L110.754 48.0016C111.764 47.3906 112.842 46.8474 113.853 46.2363C114.526 45.829 114.728 45.0142 114.257 44.1995C113.987 43.86 113.718 43.5884 113.381 43.4527Z" fill="#B68C13"/>
<path d="M37.9284 58.1178C35.2337 56.6242 32.5389 55.1984 29.9116 53.7047L28.5642 52.9578C27.2842 52.2789 26.1389 51.8036 24.9263 51.8036C23.8484 51.8036 22.7032 52.1431 21.4232 53.0257C17.0442 55.8094 11.2505 54.5194 8.28632 49.9705C5.38947 45.5573 6.19789 39.7184 10.1053 36.5952C14.4168 33.2005 20.0084 33.7436 23.5116 37.8173C24.9263 39.4468 25.9368 42.0268 26.1389 44.2673C26.4084 47.3226 27.6884 48.5447 29.7768 49.6989L37.5242 53.8405C37.659 53.9084 37.7937 53.9763 37.9284 54.0442V51.3963L30.8547 47.6621C29.2379 46.7794 28.6316 46.1005 28.4295 44.1315C28.16 41.3478 26.9474 38.3605 25.2632 36.3236C21.0189 31.2994 13.8105 30.6205 8.62316 34.7621C3.77263 38.6321 2.76211 45.8968 6.33263 51.2605C10.0379 56.8957 17.2463 58.5252 22.7032 54.9947C24.5221 53.8405 25.5326 53.9763 27.4863 55.0626L28.8337 55.8094C31.8653 57.4389 34.8968 59.1363 37.9958 60.7657V58.1178H37.9284Z" fill="#B68C13"/>
<path d="M123.756 102.928C123.621 102.725 123.486 102.589 123.352 102.385C123.015 101.842 122.543 101.231 121.937 100.824C119.242 99.0584 116.076 96.6142 112.64 93.9663C107.992 90.3679 103.208 86.6337 99.301 84.4611C96.5389 82.9674 93.7095 81.4058 90.9474 79.9121V82.6279C93.3726 83.9179 95.7979 85.2758 98.2232 86.5658C101.996 88.6026 106.712 92.3368 111.225 95.8674C114.594 98.5153 117.76 100.959 120.455 102.725C119.916 102.521 119.444 102.317 118.973 102.114C110.08 97.6326 100.446 92.2011 90.88 86.8374V89.5532C100.042 94.7132 109.339 99.8732 117.895 104.218C118.771 104.626 119.646 104.965 120.522 105.305C120.926 105.441 121.263 105.576 121.667 105.712L122.476 106.052L124.227 103.743L123.756 102.928Z" fill="#B68C13"/>
<path d="M92.0253 89.1458V66.8084C92.0253 57.9821 92.0253 49.0879 92.0253 40.2616C92.0253 36.3237 90.4084 33.2005 87.3095 30.96C86.0295 30.0095 84.5474 29.4663 82.5263 29.1268L81.8526 28.991V16.8379H47.0232V28.9232L46.2147 29.1268C46.08 29.1947 45.9453 29.1947 45.8105 29.1947C40.5558 30.0774 36.7158 34.8979 36.8505 40.3295C36.9179 43.1132 36.9179 45.9647 36.9179 48.7484C36.9179 49.9705 36.9179 51.2605 36.9179 52.4826V63.2779C36.9179 72.0363 36.9179 80.7947 36.9179 89.5531C36.9179 94.3058 39.68 98.3116 44.0589 99.941C44.5305 100.145 45.0695 100.281 45.6758 100.416C45.9453 100.484 46.2147 100.552 46.5516 100.62L47.1579 100.756V112.705H81.9874V100.756L82.5263 100.484C82.5937 100.484 82.661 100.416 82.7958 100.416C88.5221 99.33 92.0253 95.1205 92.0253 89.1458ZM89.5326 89.7568L76.261 89.8247L89.5326 82.0847V89.7568ZM89.5326 79.2332C89.5326 79.6405 89.2632 79.98 88.7916 80.2516C83.4695 83.3068 72.8926 89.4853 72.8926 89.4853C72.8926 89.4853 72.4211 89.7568 72.0842 89.7568C71.8147 89.8247 63.0568 89.7568 63.0568 89.7568L89.6 74.4126V76.5853C89.6 77.5358 89.6 78.3505 89.5326 79.2332ZM89.5326 71.6289C89.5326 72.24 88.8589 72.6474 88.5895 72.7831C86.0295 74.2768 68.8505 84.1895 62.8547 87.7879C63.0568 87.7879 58.9474 89.8247 59.0147 89.7568C58.6105 89.7568 50.2568 89.7568 50.2568 89.7568L89.6 66.8084V69.1168C89.6 69.9995 89.6 70.8142 89.5326 71.6289ZM49.5832 19.2821H79.4274V28.991H49.5832V19.2821ZM40.4211 35.8484C40.4884 35.7126 40.5558 35.6447 40.6232 35.5089C40.7579 35.2374 40.8926 35.0337 41.0947 34.7621C42.7116 32.6574 44.8674 31.571 47.36 31.4353C47.8316 31.4353 48.3705 31.4353 48.9095 31.4353H49.3811H59.8905C66.8968 31.4353 73.9032 31.4353 80.9095 31.4353C84.1432 31.4353 86.6358 32.7932 88.3874 35.5089C88.4547 35.5768 88.4547 35.6447 88.5221 35.7805L89.1958 37.1384H39.68L40.4211 35.8484ZM39.4105 39.6505H89.5326V45.2858H39.4105V39.6505ZM39.4105 47.73H89.5326V53.3653H39.4105V47.73ZM89.5326 57.1674L39.4105 86.0905V83.7821C39.4105 82.9674 39.4105 82.2205 39.4105 81.4058C39.4779 80.7268 40.0842 80.3195 40.3537 80.1837C43.7221 78.2147 73.4989 60.9016 81.5832 56.2847C82.0547 56.0132 82.661 55.8774 83.2 55.8095C84.48 55.8095 85.6926 55.8095 86.9726 55.8095H89.6V57.1674H89.5326ZM52.2779 55.8774L39.4105 63.3458V55.8774H52.2779ZM39.4105 66.3332C39.4105 65.7221 39.9495 65.2468 40.3537 65.0432C43.4526 63.21 46.5516 61.4447 49.7179 59.6116L52.6147 57.9142C53.5579 57.3711 54.9726 56.5563 55.5116 56.2168C56.1179 55.8774 56.8589 55.8095 56.8589 55.8095C58.2737 55.8095 64.8758 55.8095 64.8758 55.8095L39.3432 70.95V69.5242C39.3432 69.1847 39.3432 68.9132 39.3432 68.6416C39.4105 67.8947 39.4105 67.1479 39.4105 66.3332ZM39.4105 74.0053C39.4779 73.4621 39.9495 72.9189 40.3537 72.6474C46.9558 68.7774 64.6063 58.5253 64.6063 58.5253C65.8863 57.7784 67.2337 56.9637 68.5137 56.2847C68.9179 56.0132 69.5242 55.8774 69.9958 55.8774C72.0168 55.8095 77.8779 55.8774 77.8779 55.8774L39.2758 78.6221V77.1963C39.2758 76.8568 39.2758 76.5853 39.2758 76.2458C39.4105 75.4989 39.4105 74.7521 39.4105 74.0053ZM39.4105 88.4668L89.5326 59.2721V61.5805C89.5326 62.3953 89.5326 63.21 89.5326 63.9568C89.4653 64.6358 88.7916 65.111 88.5895 65.1789C82.9979 68.4379 53.5579 85.5474 46.9558 89.3495C46.4842 89.6211 45.9453 89.7568 45.4063 89.7568C44.5979 89.7568 39.4779 89.7568 39.4779 89.7568V88.4668H39.4105ZM79.4274 110.329H49.5832V100.688H79.4274V110.329ZM88.4547 93.9663C86.9053 96.4784 84.6147 97.9042 81.7179 98.1079C81.4484 98.1079 81.1789 98.1079 80.9095 98.1079H48.0337C44.7326 98.1079 42.1726 96.6821 40.4884 93.8305C40.4211 93.7626 40.4211 93.6268 40.3537 93.491L39.7474 92.201H89.1958L88.6568 93.491C88.5895 93.6947 88.5221 93.8305 88.4547 93.9663Z" fill="#B68C13"/>
<path d="M38.7368 92.5406L38.0632 91.1827C36.1095 92.0653 32.6737 93.8306 30.72 94.7132L20.48 100.281C17.6505 101.571 14.821 102.861 11.9916 104.151C11.6547 104.286 11.3853 104.422 11.1158 104.49H11.0484C10.9811 104.49 10.9137 104.558 10.8463 104.558L9.1621 105.101L8.48842 103.472L7.8821 102.046L9.1621 101.095L22.1642 92.269C24.4547 90.7074 28.0926 88.2632 31.5284 85.9548C33.3474 84.7327 37.2547 82.0848 38.7368 81.0664L38.0632 78.3506C37.6589 78.6222 35.7053 79.9122 35.2337 80.1837C33.6842 81.2022 31.461 82.6958 29.1705 84.3253C25.7347 86.6337 22.0968 89.1458 19.8063 90.6395C15.5621 93.559 11.2505 96.4785 7.00631 99.3301C5.3221 100.484 4.85052 102.861 5.92842 104.897C7.14105 107.206 9.36421 108.224 11.2505 107.41C13.8105 106.255 16.4379 105.033 18.9979 103.879L19.2 103.811C20.6147 103.132 22.0295 102.521 23.4442 101.842C26.2737 100.552 30.1137 98.5832 33.8863 96.6822C35.0989 96.0711 38.1979 94.5095 39.3432 93.8985L38.7368 92.5406Z" fill="#B68C13"/>
<path d="M122.947 39.0394C120.859 35.1694 116.952 32.0463 112.977 31.2315C112.236 31.0279 111.427 30.96 110.686 30.96C108.463 30.96 106.442 31.6389 104.623 33.0647C102.872 34.3547 101.053 35.5768 99.301 36.731L99.1663 36.8668C98.4926 37.2742 97.8863 37.7494 97.2126 38.1568C94.6526 39.8542 92.16 41.6194 89.6 43.3168V46.5079L101.255 38.5642C101.861 38.1568 102.467 37.7494 103.074 37.3421L103.276 37.2063C103.747 36.9347 104.152 36.5952 104.623 36.3236C105.297 35.8484 106.038 35.3731 106.712 34.8979C108.531 33.8115 110.349 32.861 113.112 33.8794C116.615 35.1015 120.724 38.4963 121.802 42.57C123.554 48.8163 121.869 53.4331 116.952 55.6058C113.112 57.3031 109.137 59.1363 105.364 60.8336H105.297C103.478 61.6484 101.592 62.531 99.7726 63.3458L89.5326 67.9626V70.8821C90.0042 70.6784 90.4084 70.4747 90.88 70.271C94.2484 68.7094 97.6842 67.2158 101.053 65.6542C102.804 64.8394 104.623 64.0247 106.375 63.21L106.509 63.1421C110.349 61.3768 114.257 59.5436 118.299 57.8463C121.802 56.4205 123.419 53.6368 124.16 51.5321C125.575 47.7979 125.103 43.0452 122.947 39.0394Z" fill="#B68C13"/>
</svg>
