<svg width="129" height="129" viewBox="0 0 129 129" fill="none" xmlns="http://www.w3.org/2000/svg">
<path d="M114.742 112.705V107.817C114.742 84.3932 114.742 61.0374 114.742 37.6138C114.742 37.478 114.674 37.3422 114.606 37.2743C108.088 30.6885 101.367 23.9669 94.1021 16.7701C94.0342 16.7022 93.8984 16.6343 93.8984 16.6343C75.3631 16.6343 55.6058 16.6343 35.3052 16.6343C35.2374 16.6343 35.1016 16.7022 35.0337 16.7022C31.2995 20.4364 27.5652 24.1706 23.831 27.9048C20.7079 30.9601 17.6526 34.0832 14.5295 37.1385C14.3937 37.2743 14.3258 37.4101 14.3258 37.6816C14.3258 59.6116 14.3258 81.6096 14.3258 103.54V112.705H114.742ZM77.5358 19.1464C81.881 19.1464 86.9731 19.1464 91.9295 19.1464C92.4726 19.1464 93.1516 19.418 93.491 19.7574C97.9721 24.2385 102.521 28.7195 107.477 33.7438L109.65 35.9164C109.718 35.9843 109.854 36.1201 109.922 36.188L111.415 37.8174H75.7705L72.6474 19.0785L77.5358 19.1464ZM70.2031 19.2143L73.3263 37.8853H55.8095L58.9326 19.2143H70.2031ZM73.9374 40.4653V54.9948L71.6289 53.8406C70.7463 53.4332 69.8637 52.958 68.981 52.4827C68.8452 52.4148 68.7774 52.4148 68.7095 52.4827C68.2342 52.7543 67.691 53.0259 67.2158 53.2295C66.6726 53.5011 66.1295 53.7727 65.6542 54.0443C64.9753 54.4516 64.2963 54.4516 63.5495 54.0443C62.3952 53.4332 61.4447 52.958 60.4942 52.5506C60.4263 52.5506 60.2226 52.5506 60.1547 52.5506C59.4758 52.8901 58.7289 53.2295 58.05 53.569C57.7784 53.7048 57.4389 53.8406 57.1674 54.0443C57.0316 54.1122 56.8279 54.1801 56.6921 54.248L55.2663 54.859V40.4653H73.9374ZM19.1463 36.188C19.2821 36.0522 19.35 35.9164 19.4858 35.7806L23.2879 31.9785C27.3616 27.9048 31.3674 23.899 35.441 19.8253C35.9842 19.2822 36.5274 19.0785 37.2063 19.0785C41.6874 19.0785 46.2363 19.0785 50.7174 19.0785H56.2847L53.1616 37.8174H17.5847L19.1463 36.188ZM16.9058 40.4653H52.6863V45.0143C52.6863 48.5448 52.6863 52.0074 52.6863 55.538C52.6863 55.6059 52.6863 55.6738 52.6863 55.6738C52.6863 55.6738 52.7542 55.6738 52.7542 55.7416C53.8405 56.2169 54.9947 56.828 55.8774 57.3032C56.0131 57.3711 56.0131 57.3711 56.1489 57.3032C57.2352 56.6922 58.3216 56.149 59.4079 55.6738C59.8831 55.4701 60.5621 55.4701 61.1053 55.6738C61.7163 55.9453 62.3274 56.2848 62.9384 56.5564C63.4816 56.828 63.9568 57.0995 64.5 57.3032C64.5 57.3032 64.5679 57.3032 64.6358 57.3032C65.79 56.7601 66.8763 56.2169 67.8947 55.6738C68.5737 55.3343 69.1847 55.3343 69.7958 55.6738C71.0179 56.2848 72.0363 56.828 72.9868 57.2353C72.9868 57.2353 73.1226 57.2353 73.1905 57.2353C73.7337 56.9638 74.3447 56.6922 74.8879 56.4206H74.9558C75.4989 56.149 75.9742 55.8774 76.4495 55.6738C76.4495 55.6738 76.4495 55.6738 76.4495 55.6059C76.4495 52.0074 76.4495 48.4769 76.4495 44.8785V40.4653H112.162V110.193H16.9058V40.4653Z" fill="#B68C13"/>
<path d="M44.9463 93.4233H24.5779C23.9668 93.4233 22.8805 93.5591 22.8805 94.5775C22.8805 94.917 22.9484 95.1207 23.1521 95.3244C23.4237 95.596 23.8989 95.7318 24.51 95.7318H44.8784C45.4895 95.7318 45.9647 95.596 46.2363 95.3244C46.44 95.1207 46.5079 94.917 46.5079 94.5775C46.5079 93.4912 45.4216 93.4233 44.9463 93.4233Z" fill="#B68C13"/>
<path d="M22.9484 103.064C22.9484 103.743 23.4916 104.219 24.3742 104.219C25.3247 104.219 26.2752 104.219 27.2258 104.219H29.4663H31.0279C32.1821 104.219 33.3363 104.219 34.4905 104.219C34.83 104.219 35.9842 104.151 35.9842 103.064C35.9842 102.725 35.9163 102.521 35.7126 102.318C35.441 102.046 35.0337 101.91 34.4905 101.91C31.1637 101.91 27.8368 101.91 24.51 101.91C24.0347 101.91 23.5595 102.046 23.3558 102.318C23.0163 102.521 22.8805 102.793 22.9484 103.064Z" fill="#B68C13"/>
</svg>
