<svg width="129" height="129" viewBox="0 0 129 129" fill="none" xmlns="http://www.w3.org/2000/svg">
<path d="M45.2858 44.4032C40.9405 49.02 38.7 54.9269 38.9716 61.0374C39.4468 74.0732 51.1926 84.3932 65.0432 83.9858C78.8258 83.5784 89.8926 72.7153 89.621 59.7474C89.4853 53.5011 86.7016 47.5942 81.9489 43.1811C77.1963 38.7679 70.8821 36.3916 64.2284 36.3916C64.0247 36.3916 63.821 36.3916 63.6174 36.3916C56.6242 36.5274 49.9705 39.4469 45.2858 44.4032ZM64.2284 38.6321H64.2963C76.7889 38.6321 87.041 48.2732 87.1089 60.1548C87.1089 65.5863 84.9363 70.8142 80.9984 74.82C76.7211 79.1653 70.6105 81.6774 64.3642 81.6774H64.2963C51.8037 81.6774 41.5516 72.0363 41.4837 60.1548C41.4837 48.3411 51.6679 38.7 64.2284 38.6321Z" fill="#B68C13"/>
<path d="M114.403 61.6483C113.248 52.0073 111.755 43.9957 109.854 36.5273C108.632 31.7747 107.002 26.2752 104.422 21.0473C104.218 20.6399 103.879 20.3005 103.539 20.0968L101.706 19.0105C98.3116 17.0415 94.781 15.0047 91.2505 13.0357C88.1274 11.3383 85.4116 10.252 82.6958 9.57308H82.6279C81.881 9.3694 80.7947 9.16571 80.1837 9.43729C76.3137 11.2705 71.9684 12.4247 67.0121 12.832C60.4942 13.3752 54.3158 12.2889 48.6805 9.57308C48.2732 9.3694 47.6621 9.3015 47.3226 9.3694L46.8474 9.50519C45.3537 9.84466 43.86 10.252 42.4342 10.7952C35.9842 13.3752 30.0774 16.9736 25.0532 20.0968C24.7137 20.3005 24.4421 20.6399 24.2384 20.9794L24.1705 21.0473C23.4916 22.4731 22.7447 23.9668 22.2016 25.4605C18.3316 35.8483 16.3626 46.4399 15.0047 55.402C13.9184 62.6668 13.1716 70.6783 12.6284 80.591C12.0174 92.6762 11.9495 105.101 12.5605 118.612C12.6284 119.495 12.6963 119.63 13.7826 119.63C15.1405 119.63 16.4984 119.63 17.8563 119.63H26.8863C27.4974 119.63 27.7689 119.563 27.9047 119.019L28.1763 117.865C29.0589 113.859 30.0095 109.718 30.96 105.644C31.2316 104.422 31.6389 103.2 31.9784 102.046C32.1821 101.503 32.3179 100.959 32.4537 100.416L32.5216 100.213L33.0647 100.28L33.9474 103.675C34.6942 106.459 35.3732 109.31 36.12 112.094C36.4595 113.316 36.4595 113.384 37.9532 113.384H87.7879C88.8063 113.384 89.7568 113.384 90.7753 113.384C92.0653 113.384 92.0653 113.384 92.4047 112.23C92.6084 111.347 92.88 110.533 93.0837 109.65C93.2195 109.039 93.4231 108.36 93.5589 107.749L95.6637 100.009L95.9353 100.552C96.6142 101.91 97.0895 103.268 97.361 104.558C98.4474 109.243 99.5337 113.859 100.552 118.612C100.756 119.63 100.959 119.834 101.978 119.834C106.323 119.834 110.668 119.834 115.014 119.834C115.896 119.834 116.1 119.698 116.1 118.884C116.168 116.983 116.236 115.081 116.304 113.18C116.915 93.5589 116.304 77.1962 114.403 61.6483ZM49.1558 11.2026C60.0868 15.2083 69.9995 15.2083 79.5726 11.2026L80.0479 10.9989L79.8442 11.4741C79.7084 11.8136 79.5726 12.1531 79.5047 12.4926C79.301 13.1715 79.0974 13.7147 78.8258 14.2578C77.2642 17.7883 74.8879 18.8068 71.4253 19.961C68.7774 20.8436 66.2653 21.3189 63.821 21.3189C61.1731 21.3189 58.661 20.7757 56.1489 19.6894C52.3468 18.0599 50.0384 15.6157 49.0879 12.3568C49.02 12.1531 49.02 12.0173 48.9521 11.7457C48.9521 11.6099 48.8842 11.542 48.8842 11.4062L48.8163 10.9989L49.1558 11.2026ZM26.3432 118.408H13.8505V112.026H27.8368L26.3432 118.408ZM32.1821 97.5647C30.3489 101.57 29.2626 105.848 28.3121 109.854C28.2442 110.261 28.1084 110.736 27.3616 110.736C23.9668 110.736 20.64 110.736 17.1774 110.736H13.7147L13.6468 110.057C13.6468 109.786 13.5789 109.514 13.5789 109.243C13.3753 96.8178 13.6468 86.0226 14.3258 76.1099C15.3442 61.4447 17.1095 49.4273 19.961 38.2247C21.5226 31.9104 23.0842 27.2257 24.9853 22.8805C25.0532 22.7447 25.121 22.6089 25.1889 22.4731L25.4605 21.9978L25.6642 22.1336C28.4479 24.1705 31.2995 26.3431 32.9289 29.3983C33.4042 30.281 33.4721 31.1636 33.1326 32.1141C30.1453 41.5515 29.1268 51.532 29.9416 62.5989C30.2132 65.9257 30.5526 69.3883 30.8921 72.6473C31.2316 75.8383 31.571 79.0973 31.7747 82.3562C32.0463 85.6831 32.1142 89.1457 32.25 92.4726C32.3179 93.7626 32.3179 95.0526 32.3858 96.3426C32.3858 96.8178 32.3179 97.2252 32.1821 97.5647ZM92.1331 107.409C91.7937 108.835 91.4542 110.125 91.1147 111.483C91.0468 111.755 90.6395 111.958 90.3 112.094C90.2321 112.162 90.0963 112.162 89.9605 112.162C89.8926 112.162 89.8247 112.162 89.7568 112.162C89.6889 112.162 89.621 112.162 89.5531 112.162H79.7084C66.401 112.162 52.6184 112.162 39.0395 112.162C38.0889 112.162 37.4779 111.958 37.2742 110.872C37.0705 109.718 36.7989 108.632 36.4595 107.545C36.3237 107.07 36.1879 106.595 36.12 106.119L36.0521 105.848H92.4726L92.1331 107.409ZM95.1884 82.492C94.9847 84.9362 94.9168 87.4483 94.8489 89.8926C94.781 91.9973 94.7132 94.2378 94.5774 96.4104C94.5095 97.7004 94.17 98.9226 93.8984 100.145C93.7626 100.62 93.6268 101.095 93.5589 101.638C93.4231 102.181 93.2874 102.793 93.1516 103.336C93.0837 103.607 93.0158 103.879 92.9479 104.15L92.88 104.286H82.8316C67.5553 104.286 52.2789 104.286 37.0705 104.286C36.2558 104.286 35.7805 104.083 35.5768 103.2C35.3053 101.978 35.0337 100.824 34.6942 99.6694C34.5584 99.0583 34.3547 98.4473 34.2189 97.8362C34.151 97.4289 34.0832 97.0894 34.0832 96.7499C34.2868 89.7568 33.6079 82.7636 32.9289 76.721C31.9784 67.9626 31.1637 60.0868 31.5032 52.211C31.7747 45.2178 32.7932 39.1073 34.6263 33.3362C35.3053 31.0957 34.8979 29.0589 33.2684 26.9541C31.571 24.7815 29.3984 23.0162 27.2937 21.3868C27.2258 21.3189 27.1579 21.251 27.0221 21.1831L26.6826 20.9115L26.8863 20.7757C30.6884 18.0599 43.3168 11.0668 46.9832 10.931H47.1868V11.1347C47.4584 14.122 48.8163 16.5662 51.0568 18.4673C59.4758 25.0531 72.0363 22.6768 77.4 18.4673C79.7084 16.4983 81.0663 14.0541 81.3379 10.931V10.6594L81.6095 10.7273C88.4668 12.832 94.5095 16.3626 100.348 19.8252L102.046 20.8436L101.842 21.0473C101.503 21.3189 101.231 21.5226 100.892 21.7941C100.213 22.3373 99.6016 22.8126 98.9905 23.3557C97.4968 24.6457 95.7316 26.2073 94.5774 28.2441C93.6268 29.8057 93.491 31.2315 93.9663 32.861C96.8179 42.2305 97.8363 52.0073 97.0895 62.8705C96.8179 66.1973 96.4784 69.592 96.1389 72.9189C95.7995 76.042 95.46 79.301 95.1884 82.492ZM114.946 118.408H102.182L100.892 112.026H114.878V118.408H114.946ZM114.946 109.243C114.946 109.446 114.946 109.65 114.946 109.921L114.878 110.533H105.984C105.576 110.533 105.169 110.533 104.694 110.533C103.743 110.533 102.725 110.533 101.774 110.6C101.706 110.6 101.638 110.6 101.571 110.6C100.688 110.6 100.348 110.193 100.145 109.378C99.4658 106.663 98.651 103.947 97.9042 101.367L97.7005 100.552C97.5647 100.009 97.361 99.4657 97.0895 98.9904C96.2068 97.4968 96.1389 95.9352 96.1389 94.5094C96.1389 88.331 96.75 82.2205 97.361 76.4494C98.3795 67.2157 99.2621 58.1857 98.5831 49.2236C98.1079 43.181 97.1574 37.8173 95.5279 32.6573C95.0526 31.0957 95.2563 29.6699 96.2747 28.1762C97.4289 26.4789 101.231 22.9483 103.132 22.0657L103.336 21.9299L103.404 22.1336C103.675 22.9483 104.015 23.6952 104.286 24.442C104.897 26.1394 105.576 27.8368 106.119 29.602C108.699 37.5457 110.601 46.3041 112.162 57.1673C114.471 72.5794 115.285 89.0778 114.946 109.243Z" fill="#B68C13"/>
<path d="M114.878 61.5804C113.724 51.8715 112.23 43.9278 110.329 36.4594C109.107 31.7068 107.477 26.1394 104.897 20.9115C104.626 20.4362 104.286 20.0289 103.811 19.7573L101.978 18.671C98.5832 16.702 95.0526 14.6652 91.5221 12.6962C88.3311 10.9989 85.6153 9.84466 82.8316 9.2336H82.7637C81.8811 9.02992 80.7947 8.75834 80.0479 9.09781C76.1779 10.931 71.9684 12.0173 67.0121 12.4247C60.5621 12.9678 54.4516 11.8815 48.8842 9.2336C48.4768 9.02992 47.7979 8.89413 47.2547 9.02992L46.7795 9.16571C45.2858 9.50518 43.7242 9.91255 42.2984 10.4557C35.7805 13.0357 29.8737 16.6341 24.8495 19.8252C24.4421 20.0968 24.1026 20.4362 23.899 20.9115L23.8311 20.9794C23.1521 22.4052 22.4053 23.8989 21.8621 25.3926C17.8563 35.7804 15.8874 46.372 14.5295 55.402C13.4432 62.6668 12.6284 70.6783 12.1532 80.6589C11.5421 92.7441 11.4742 105.169 12.0853 118.748C12.1532 119.902 12.4247 120.174 13.7147 120.174C15.0726 120.174 16.4305 120.174 17.7884 120.174H26.8184C27.2258 120.174 28.0405 120.174 28.2442 119.223L28.5158 118.069C29.3984 114.063 30.349 109.922 31.2995 105.848C31.5711 104.626 31.9784 103.404 32.3179 102.249C32.4537 101.842 32.5895 101.367 32.7253 100.959L33.4721 103.879C34.219 106.663 34.8979 109.514 35.6447 112.298C36.0521 113.791 36.1879 113.927 37.8853 113.927H87.72C88.7384 113.927 89.689 113.927 90.7074 113.927C92.2011 113.927 92.4047 113.792 92.7442 112.434C92.9479 111.551 93.2195 110.736 93.4232 109.854C93.559 109.243 93.7626 108.564 93.8984 107.953L95.6637 101.367C96.2068 102.521 96.5463 103.675 96.8179 104.762C97.9042 109.446 98.9905 114.063 100.009 118.816C100.281 119.97 100.552 120.309 101.842 120.309C103.947 120.309 106.052 120.309 108.088 120.309C110.329 120.309 112.637 120.309 114.878 120.309C116.032 120.309 116.372 119.97 116.372 118.951C116.439 117.05 116.507 115.149 116.575 113.248C117.322 93.5589 116.779 77.1283 114.878 61.5804ZM116.1 118.884C116.1 119.698 115.896 119.834 115.014 119.834C110.668 119.834 106.323 119.834 101.978 119.834C101.027 119.834 100.824 119.63 100.552 118.612C99.4658 113.859 98.4474 109.243 97.3611 104.558C97.0216 103.268 96.5463 101.91 95.9353 100.552L95.6637 100.009L93.559 107.749C93.3553 108.36 93.2195 109.039 93.0837 109.65C92.88 110.533 92.6084 111.347 92.4047 112.23C92.0653 113.384 92.0653 113.384 90.7753 113.384C89.7569 113.384 88.8063 113.384 87.7879 113.384H37.9532C36.4595 113.384 36.4595 113.384 36.12 112.094C35.3732 109.31 34.6942 106.459 33.9474 103.675L33.0647 100.28L32.5216 100.213L32.4537 100.416C32.3179 100.959 32.1142 101.503 31.9784 102.046C31.639 103.2 31.2316 104.422 30.96 105.644C30.0095 109.718 29.059 113.859 28.1763 117.865L27.9047 119.019C27.769 119.495 27.4974 119.63 26.8863 119.63H17.8563C16.4984 119.63 15.1405 119.63 13.7826 119.63C12.6963 119.63 12.6284 119.495 12.5605 118.612C11.9495 105.033 12.0174 92.6083 12.6284 80.591C13.1716 70.6783 13.9184 62.6668 15.0047 55.402C16.3626 46.4399 18.3316 35.8483 22.2695 25.4604C22.8126 23.9668 23.5595 22.4731 24.2384 21.0473L24.3063 20.9794C24.4421 20.6399 24.7816 20.3004 25.1211 20.0968C30.0774 16.9736 35.9842 13.3752 42.5021 10.7952C43.9279 10.252 45.4216 9.84466 46.9153 9.50518L47.3905 9.36939C47.73 9.3015 48.3411 9.36939 48.7484 9.57308C54.3837 12.2889 60.5621 13.3752 67.08 12.832C72.0363 12.4247 76.3137 11.3383 80.2516 9.43729C80.8626 9.16571 81.8811 9.43729 82.6958 9.57308H82.7637C85.4795 10.1841 88.1953 11.2704 91.3184 13.0357C94.849 14.9368 98.3795 17.0415 101.774 19.0104L103.607 20.0968C103.947 20.3004 104.286 20.7078 104.49 21.0473C107.07 26.2752 108.699 31.7747 109.922 36.5273C111.823 43.9957 113.316 51.9394 114.471 61.6483C116.372 77.1962 116.983 93.5589 116.372 113.113C116.236 115.082 116.168 116.983 116.1 118.884Z" fill="#B68C13"/>
<path d="M13.8505 118.408H26.4111L27.8368 112.026H13.8505V118.408ZM14.2579 112.434H27.2937L26.0716 117.933H14.2579V112.434Z" fill="#B68C13"/>
<path d="M102.182 118.408H114.946V112.026H100.959L102.182 118.408ZM114.538 117.933H102.589L101.503 112.434H114.538V117.933Z" fill="#B68C13"/>
<path d="M106.119 29.602C105.576 27.9047 104.897 26.1394 104.286 24.442C104.015 23.6952 103.675 22.8805 103.404 22.1336L103.336 21.9299L103.132 22.0657C101.231 22.9484 97.4289 26.4789 96.2747 28.1762C95.2563 29.6699 95.0526 31.0957 95.5279 32.6573C97.0895 37.7494 98.1079 43.181 98.5831 49.2236C99.2621 58.1857 98.3795 67.2157 97.361 76.4494C96.75 82.1526 96.1389 88.2631 96.1389 94.5094C96.1389 96.0031 96.2068 97.5647 97.0895 98.9905C97.361 99.4657 97.4968 100.009 97.7005 100.552L97.9042 101.367C98.651 104.015 99.3979 106.73 100.145 109.378C100.348 110.125 100.62 110.6 101.571 110.6C101.638 110.6 101.706 110.6 101.774 110.6C102.725 110.533 103.743 110.533 104.694 110.533C105.101 110.533 105.508 110.533 105.984 110.533H114.878L114.946 109.922C114.946 109.65 114.946 109.446 114.946 109.243C115.285 89.0778 114.403 72.5794 112.23 57.1673C110.668 46.3041 108.699 37.5457 106.119 29.602ZM114.538 109.243C114.538 109.446 114.538 109.65 114.538 109.922V110.125H106.052C105.644 110.125 105.237 110.125 104.762 110.125C103.811 110.125 102.793 110.125 101.774 110.193C100.959 110.261 100.824 109.989 100.62 109.31C99.941 106.595 99.1263 103.879 98.3795 101.231L98.1758 100.416C98.04 99.8052 97.8363 99.262 97.5647 98.7868C96.75 97.4289 96.6821 95.9352 96.6821 94.5094C96.6821 88.331 97.2931 82.2205 97.9042 76.5173C98.9226 67.2836 99.8053 58.2536 99.1263 49.2236C98.651 43.181 97.7005 37.7494 96.071 32.5894C95.5958 31.0957 95.7995 29.8736 96.75 28.4478C97.7684 26.8862 101.299 23.6273 103.2 22.541C103.472 23.2199 103.743 23.9668 104.015 24.6457C104.626 26.3431 105.305 28.0405 105.848 29.7378C108.428 37.6136 110.329 46.372 111.891 57.2352C113.995 72.5794 114.878 89.1457 114.538 109.243Z" fill="#B68C13"/>
<path d="M48.8842 11.8137C48.9521 12.0174 48.9521 12.2211 49.02 12.4248C49.9705 15.6837 52.2789 18.1279 56.081 19.7574C58.5253 20.8437 61.1053 21.3869 63.7531 21.3869C66.1974 21.3869 68.7095 20.9116 71.3574 20.029C74.82 18.8748 77.1284 17.8564 78.7579 14.3258C79.0295 13.7827 79.2331 13.2395 79.4368 12.5606C79.5726 12.2211 79.6405 11.9495 79.7763 11.5422L79.98 11.0669L79.5047 11.2706C69.9995 15.2764 60.0189 15.2085 49.0879 11.2706L48.7484 11.1348L48.8163 11.5422C48.8842 11.6101 48.8842 11.6779 48.8842 11.8137ZM79.2331 11.8137C79.1652 12.0174 79.0974 12.1532 79.0295 12.3569C78.8258 12.9679 78.6221 13.579 78.3505 14.0543C76.8568 17.449 74.5484 18.3995 71.2216 19.5537C65.79 21.3869 60.9016 21.319 56.2847 19.3501C52.6184 17.7885 50.3779 15.4801 49.4953 12.289C49.4274 12.1532 49.4274 11.9495 49.3595 11.7458C60.0868 15.6158 69.8637 15.6158 79.2331 11.8137Z" fill="#B68C13"/>
<path d="M93.9663 32.861C93.491 31.2315 93.6947 29.8057 94.5774 28.2442C95.7995 26.2752 97.4968 24.6457 98.9905 23.3557C99.6016 22.8126 100.281 22.3373 100.892 21.7942C101.163 21.5226 101.503 21.3189 101.842 21.0473L102.114 20.8436L100.416 19.8252C94.5774 16.3626 88.6026 12.8321 81.6774 10.7273L81.4058 10.6594V10.931C81.0663 14.0542 79.7763 16.5663 77.4679 18.4673C72.0363 22.6768 59.5437 25.0531 51.1247 18.4673C48.8163 16.5663 47.5263 14.0542 47.2547 11.1347V10.931H47.051C43.3847 11.0668 30.7563 18.0599 26.9542 20.7757L26.7505 20.9115L27.09 21.1831C27.1579 21.251 27.2258 21.3189 27.3616 21.3868C29.4663 22.9484 31.7068 24.7136 33.3363 26.9542C34.9658 29.0589 35.3731 31.0957 34.6942 33.3363C32.861 39.0394 31.8426 45.2178 31.571 52.211C31.2316 60.1547 31.9784 68.0305 32.9968 76.721C33.6758 82.7636 34.3547 89.7568 34.151 96.7499C34.151 97.0894 34.2189 97.4289 34.2868 97.8363C34.4226 98.4473 34.6263 99.0584 34.7621 99.6694C35.1016 100.824 35.3731 102.046 35.6447 103.2C35.8484 104.083 36.3237 104.286 37.1384 104.286C52.4147 104.286 67.691 104.286 82.8995 104.286H92.9479L93.0158 104.15C93.0837 103.879 93.1516 103.607 93.2195 103.336C93.3553 102.725 93.5589 102.182 93.6268 101.638C93.7626 101.163 93.8305 100.62 93.9663 100.145C94.3058 98.9226 94.5774 97.6326 94.6452 96.4105C94.781 94.2378 94.8489 92.0652 94.9168 89.8926C94.9847 87.4484 95.0526 84.9363 95.2563 82.4921C95.5279 79.301 95.7995 75.9742 96.1389 72.851C96.4784 69.5921 96.8179 66.1973 97.0895 62.8026C97.8363 52.0073 96.8179 42.1626 93.9663 32.861ZM95.6637 72.7831C95.3242 75.9742 94.9847 79.2331 94.781 82.4242C94.5774 84.8684 94.5095 87.4484 94.4416 89.8926C94.3737 91.9973 94.3058 94.2378 94.17 96.4105C94.1021 97.6326 93.7626 98.8547 93.491 100.077C93.3552 100.552 93.2195 101.095 93.1516 101.57C93.0158 102.114 92.88 102.657 92.7442 103.268C92.6763 103.472 92.6084 103.675 92.5405 103.947H82.8316C67.5553 103.947 52.2789 103.947 37.0705 103.947C36.3237 103.947 36.12 103.811 35.9842 103.2C35.7126 101.978 35.441 100.756 35.1016 99.6015C34.9658 98.9905 34.7621 98.3794 34.6263 97.7684C34.5584 97.4289 34.4905 97.0894 34.4905 96.8178C34.6263 89.7568 33.9474 82.7636 33.2684 76.721C32.3179 68.0305 31.571 60.1547 31.8426 52.2789C32.1142 45.3536 33.1326 39.2431 34.9658 33.5399C35.7126 31.1636 35.3053 28.991 33.54 26.7505C31.8426 24.5099 29.6021 22.7447 27.4295 21.1152C27.3616 21.1152 27.3616 21.0473 27.2937 21.0473C31.2316 18.3315 42.9774 11.8136 46.7116 11.4742C47.051 14.4615 48.4089 16.9736 50.7174 18.9426C58.5931 25.121 71.2216 23.8989 77.6037 18.9426C79.9121 16.9736 81.3379 14.4615 81.6774 11.3384C88.3989 13.4431 94.1021 16.7699 100.077 20.3005L101.231 20.9794C101.027 21.1831 100.756 21.3189 100.552 21.5226C99.8731 22.0657 99.2621 22.541 98.5831 23.0842C97.0216 24.3742 95.2563 26.0036 94.0342 28.0405C93.0837 29.6699 92.8121 31.2994 93.3552 32.9968C96.2068 42.2984 97.2253 52.0752 96.4105 62.8026C96.3426 66.1294 96.0031 69.5242 95.6637 72.7831Z" fill="#B68C13"/>
<path d="M31.7747 82.4241C31.5032 79.1652 31.1637 75.9062 30.8921 72.7152C30.5526 69.3883 30.2132 65.9936 29.9416 62.6667C29.1268 51.5999 30.1453 41.6194 33.1326 32.182C33.4042 31.2315 33.3363 30.2809 32.9289 29.4662C31.2995 26.343 28.4479 24.2383 25.6642 22.2015L25.4605 22.0657L25.1889 22.5409C25.121 22.6767 25.0532 22.8125 24.9853 22.9483C23.0842 27.2257 21.5226 31.9783 19.961 38.2925C17.1774 49.4952 15.3442 61.5125 14.3258 76.1778C13.6468 86.0904 13.3753 96.8857 13.5789 109.31C13.5789 109.582 13.5789 109.854 13.6468 110.125L13.7147 110.804H17.1774C20.5721 110.804 23.9668 110.804 27.3616 110.804C28.1084 110.804 28.1763 110.329 28.3121 109.921C29.2626 105.916 30.3489 101.706 32.1821 97.6325C32.3179 97.2931 32.3858 96.8857 32.3858 96.4783C32.3179 95.1883 32.3179 93.8983 32.25 92.6083C32.1821 89.2136 32.0463 85.8188 31.7747 82.4241ZM31.7747 97.3609C29.9416 101.435 28.8553 105.644 27.9047 109.718V109.786C27.8368 110.125 27.7689 110.261 27.4295 110.261C25.121 110.261 22.8126 110.261 20.5042 110.261C19.4179 110.261 18.3316 110.261 17.3132 110.261H14.19V109.989C14.19 109.718 14.1221 109.446 14.1221 109.175C13.9184 96.8178 14.19 85.9546 14.8689 76.1099C15.8874 61.5125 17.6526 49.4952 20.5042 38.2925C22.0658 31.9783 23.6274 27.2936 25.5284 23.0162C25.5963 22.8804 25.6642 22.8125 25.7321 22.6088C28.38 24.5778 31.0958 26.6825 32.6574 29.602C33.0647 30.3488 33.1326 31.1636 32.861 32.0462C29.8737 41.5515 28.7874 51.5999 29.6021 62.6667C29.8737 66.0615 30.2132 69.4562 30.5526 72.783C30.8921 75.9741 31.2316 79.233 31.4353 82.492C31.7068 85.8188 31.7747 89.2815 31.9105 92.5404C31.9784 93.8304 31.9784 95.1204 32.0463 96.4104C31.9784 96.7499 31.9105 97.0894 31.7747 97.3609Z" fill="#B68C13"/>
<path d="M36.1879 106.119C36.3237 106.595 36.4595 107.07 36.5274 107.545C36.7989 108.699 37.1384 109.786 37.3421 110.872C37.5458 111.958 38.1568 112.162 39.1074 112.162C52.6863 112.162 66.4689 112.162 79.7763 112.162H89.6211C89.6889 112.162 89.7568 112.162 89.8247 112.162C89.8926 112.162 89.9605 112.162 90.0284 112.162C90.1642 112.162 90.2321 112.162 90.3679 112.094C90.7753 111.958 91.1147 111.755 91.1826 111.483C91.5221 110.125 91.8616 108.835 92.2011 107.409L92.6084 105.848H36.12L36.1879 106.119ZM90.9111 111.415L90.7074 111.347C90.7074 111.347 90.6395 111.483 90.0963 111.687C90.0284 111.687 89.8926 111.687 89.7568 111.687C89.6889 111.687 89.6211 111.687 89.5532 111.687H79.7084C77.1284 111.687 74.6163 111.687 72.0363 111.687C61.1732 111.687 50.0384 111.687 39.1074 111.687C38.1568 111.687 37.8853 111.483 37.7495 110.736C37.5458 109.582 37.2063 108.428 36.9347 107.342C36.8668 106.934 36.731 106.595 36.6632 106.187H91.9974L91.7258 107.206C91.3863 108.632 91.0468 109.922 90.7074 111.279L90.9111 111.415Z" fill="#B68C13"/>
<path d="M70.2711 47.2546C67.6911 46.7794 65.2469 48.2731 64.4321 50.5815C63.5495 48.2052 61.1053 46.7794 58.5932 47.2546C55.7416 47.7978 53.8405 50.5136 54.3837 53.3652C54.6553 54.7909 55.47 56.0131 56.5563 56.7599L60.4942 59.4757C61.5126 60.1546 61.9879 60.562 62.1237 61.5125C62.1237 61.6483 62.1237 61.7841 62.1916 61.9199L63.1421 62.5988C63.5495 62.8704 64.5 63.8209 64.5 63.8209C64.5 63.8209 65.4505 62.8704 65.8579 62.5988L66.8084 61.9199C66.8084 61.7841 66.8084 61.6483 66.8763 61.5125C67.08 60.562 67.4874 60.1546 68.5058 59.4757L72.4437 56.7599C73.53 56.0131 74.3448 54.7909 74.6163 53.3652C75.0237 50.5136 73.1226 47.7978 70.2711 47.2546ZM71.9005 52.8899C71.7648 53.7046 71.2216 54.3157 70.5426 54.7909C69.8637 55.2662 67.4874 56.8957 66.8763 57.3031C65.9258 57.982 64.9074 58.9325 64.3642 60.1546C63.889 58.9325 62.8705 57.9141 61.8521 57.3031C61.2411 56.8957 58.8648 55.2662 58.1858 54.7909C57.5069 54.3157 56.9637 53.7725 56.8279 52.8899C56.5563 51.4641 57.5069 50.1062 58.9327 49.8346C60.3584 49.5631 61.7163 50.5136 61.9879 51.9394C62.2595 53.2294 61.4448 54.5194 60.2226 54.9267L62.599 56.5562C63.3458 55.9452 63.9569 55.1304 64.2963 54.2478C64.6358 55.1304 65.2469 55.9452 65.9937 56.5562L68.37 54.9267C67.1479 54.5194 66.4011 53.2973 66.6048 51.9394C66.8763 50.5136 68.2342 49.5631 69.66 49.8346C71.2216 50.1062 72.1721 51.4641 71.9005 52.8899Z" fill="#B68C13"/>
<path d="M72.5116 63.5494L70.1353 65.1789C71.3574 65.5862 72.1042 66.8083 71.9005 68.1662C71.629 69.592 70.2711 70.5426 68.8453 70.271C67.4195 69.9994 66.469 68.6415 66.7405 67.2157C66.8763 66.401 67.4195 65.7899 68.0984 65.3147C68.7774 64.8394 71.1537 63.2099 71.7647 62.8026C72.919 61.9878 74.209 60.7657 74.4805 59.0683C74.6842 58.1178 74.5484 57.1673 74.209 56.2847C73.8695 56.692 73.2584 57.2352 72.8511 57.5068L71.9005 58.1857C71.9005 58.3215 71.9005 58.4573 71.8326 58.5931C71.629 59.5436 71.2216 59.951 70.2032 60.6299L66.2653 63.3457C65.3826 63.9568 64.7037 64.8394 64.2963 65.8578C63.889 64.8394 63.21 63.9568 62.3274 63.3457L58.3895 60.6299C57.3711 59.951 56.8958 59.5436 56.76 58.5931C56.76 58.4573 56.76 58.3215 56.6921 58.1857L55.7416 57.5068C55.3342 57.1673 54.7232 56.692 54.3837 56.2847C54.0442 57.1673 53.9763 58.1178 54.1121 59.0683C54.3837 60.6978 55.6737 61.9878 56.8279 62.8026C57.439 63.2099 59.8153 64.8394 60.4942 65.3147C61.1732 65.7899 61.7163 66.3331 61.8521 67.2157C62.1237 68.6415 61.1732 69.9994 59.7474 70.271C58.3216 70.5426 56.9637 69.592 56.6921 68.1662C56.4205 66.8762 57.2353 65.5862 58.4574 65.1789L56.0811 63.5494C54.5874 64.7036 53.7726 66.6726 54.1121 68.6415C54.6553 71.4931 57.3711 73.3941 60.2226 72.851C62.1237 72.5115 63.5495 71.1536 64.1605 69.5241C64.7716 71.2215 66.2653 72.5115 68.0984 72.851C70.95 73.3941 73.6658 71.4931 74.209 68.6415C74.8879 66.6726 74.0732 64.7036 72.5116 63.5494Z" fill="#B68C13"/>
</svg>
