<svg width="190" height="55" viewBox="0 0 190 55" fill="none" xmlns="http://www.w3.org/2000/svg">
<path d="M109.539 0.217773C109.639 0.570699 109.739 0.805983 109.739 1.15891C110.939 6.21751 112.239 11.2761 113.439 16.2171C114.639 21.2757 115.939 26.4519 117.139 31.5105C118.239 35.8633 119.239 40.0984 120.339 44.4511C121.039 47.1569 121.639 49.8627 122.339 52.5684C122.439 52.8037 122.539 52.9214 122.739 52.9214C123.839 52.9214 124.939 52.9214 126.139 52.9214C126.939 52.9214 127.639 52.9214 128.439 52.9214C128.839 52.9214 128.939 52.9214 129.039 52.3332C129.239 51.392 129.439 50.4509 129.739 49.5097C131.439 41.7454 133.139 33.981 134.839 26.2166C135.839 21.6286 136.839 17.0406 137.839 12.5702C138.739 8.57035 139.639 4.57053 140.439 0.570699C140.439 0.453057 140.439 0.453057 140.539 0.217773C140.639 0.453057 140.639 0.570699 140.639 0.688341C141.939 6.09987 143.239 11.5114 144.639 16.8053C146.139 22.805 147.539 28.8048 149.039 34.8045C150.539 40.8042 151.939 46.6863 153.439 52.6861C153.539 52.9214 153.639 52.9214 153.839 52.9214C155.239 52.9214 156.739 52.9214 158.139 52.9214C158.339 52.9214 158.439 52.9214 158.339 53.2743C153.139 53.2743 148.039 53.2743 142.839 53.2743C142.839 52.9214 142.839 52.9214 143.039 52.9214C144.339 52.9214 145.639 52.9214 146.939 52.9214C147.039 52.9214 147.139 52.9214 147.339 52.9214C147.239 52.4508 147.139 51.9802 147.039 51.5097C146.039 47.1569 145.039 42.6865 143.939 38.3338C143.839 38.0985 143.739 37.9808 143.539 37.9808C139.939 37.9808 136.339 37.9808 132.839 37.9808C132.739 37.9808 132.639 37.9808 132.539 37.9808C132.339 39.1573 132.039 40.216 131.839 41.2748C131.039 44.8041 130.339 48.2157 129.539 51.7449C129.439 51.9802 129.439 52.2155 129.439 52.4508C129.339 52.8037 129.439 52.9214 129.739 52.9214C131.039 52.9214 132.339 52.9214 133.539 52.9214C133.739 52.9214 133.839 52.9214 133.839 53.2743C126.439 53.2743 119.139 53.2743 111.739 53.2743C111.639 52.9214 111.639 52.9214 111.939 52.9214C113.239 52.9214 114.539 52.9214 115.839 52.9214C115.939 52.9214 116.039 52.9214 116.239 52.9214C116.139 52.5684 116.039 52.2155 116.039 51.8626C115.039 47.3922 113.939 42.9218 112.939 38.569C112.839 38.2161 112.739 38.0985 112.439 38.0985C108.939 38.0985 105.339 38.0985 101.839 38.0985C101.539 38.0985 101.439 38.2161 101.439 38.4514C100.439 42.9218 99.4392 47.5098 98.4392 51.9802C98.4392 52.0979 98.3392 52.3332 98.3392 52.4508C98.2392 52.9214 98.3392 52.9214 98.6392 52.9214C99.8392 52.9214 101.139 52.9214 102.339 52.9214C102.439 52.9214 102.539 52.9214 102.739 52.9214C102.739 53.039 102.739 53.1566 102.739 53.2743C99.6392 53.2743 96.5392 53.2743 93.4392 53.2743C93.4392 52.9214 93.4392 52.9214 93.6392 52.9214C94.8392 52.9214 96.1392 52.9214 97.3392 52.9214C97.7392 52.9214 97.8392 52.8037 97.9392 52.3332C98.2392 50.8038 98.6392 49.2745 98.9392 47.7451C100.739 39.7455 102.439 31.6282 104.239 23.6285C105.239 19.0405 106.239 14.3348 107.239 9.74677C107.939 6.68808 108.539 3.62939 109.239 0.570699C109.439 0.453057 109.439 0.335415 109.539 0.217773ZM138.139 12.9231C138.139 12.9231 138.039 12.9231 138.139 12.9231C136.239 21.0404 134.539 29.2753 132.739 37.5103C136.539 37.5103 140.139 37.5103 143.939 37.5103C141.939 29.2753 140.039 21.158 138.139 12.9231ZM112.839 37.5103C110.939 29.2753 109.039 21.158 107.139 12.9231H107.039C105.239 21.0404 103.439 29.2753 101.639 37.5103C105.339 37.5103 109.039 37.5103 112.839 37.5103Z" fill="#BDBBBB"/>
<path d="M158.439 1.98232C158.339 1.62939 158.439 1.62939 158.639 1.62939C159.539 1.62939 160.339 1.62939 161.239 1.62939C165.239 1.62939 169.339 1.62939 173.339 1.62939C175.339 1.62939 177.339 1.86468 179.239 2.57053C182.039 3.62931 183.939 5.8645 184.639 9.15847C185.239 12.0995 185.339 14.9229 184.739 17.864C184.339 19.8639 183.439 21.6285 182.139 23.1578C180.739 24.6872 179.139 25.6283 177.339 26.2165C176.739 26.4518 176.139 26.5695 175.439 26.6871C176.339 26.9224 177.139 27.04 178.039 27.2753C179.439 27.6282 180.739 28.0988 181.839 28.9223C183.439 30.0987 184.439 31.7457 184.639 33.9809C184.639 34.4515 184.739 34.922 184.739 35.3926C184.739 39.6277 184.739 43.8628 184.739 47.9803C184.739 49.1567 184.939 50.4507 185.039 51.6272C185.039 51.7448 185.139 51.8624 185.139 51.9801C185.339 52.8036 185.739 53.3918 186.539 53.5094C187.339 53.6271 188.039 53.3918 188.439 52.5683C188.839 51.8624 189.039 51.039 189.139 50.0978C189.239 48.6861 189.339 47.1568 189.339 45.7451C189.339 44.6863 189.339 43.6275 189.339 42.5687C189.339 42.4511 189.339 42.3335 189.339 42.2158C189.439 42.2158 189.539 42.2158 189.639 42.2158C189.639 42.3335 189.639 42.3335 189.639 42.4511C189.639 44.8039 189.539 47.1568 189.539 49.5096C189.539 50.4507 189.339 51.2742 189.039 52.0977C188.539 53.5094 187.539 54.3329 186.239 54.5682C184.739 54.8035 183.239 54.4506 181.939 53.5094C180.539 52.4507 179.739 50.9213 179.439 48.9214C179.339 48.0979 179.239 47.2744 179.239 46.4509C179.239 42.4511 179.239 38.5689 179.239 34.5691C179.239 32.3339 178.539 30.4516 177.139 28.9223C175.939 27.7459 174.539 27.1577 173.039 26.9224C171.339 26.8047 169.739 26.8047 168.039 26.8047H167.939C167.939 26.9224 167.939 27.04 167.939 27.1577C167.939 35.5102 167.939 43.7452 167.939 52.0977C167.939 52.6859 167.939 52.6859 168.439 52.6859C169.339 52.6859 170.239 52.6859 171.139 52.6859C171.339 52.6859 171.439 52.6859 171.439 53.0389C167.039 53.0389 162.739 53.0389 158.339 53.0389C158.239 52.8036 158.339 52.6859 158.539 52.6859C159.639 52.6859 160.739 52.6859 161.839 52.6859C162.339 52.6859 162.439 52.6859 162.439 51.9801C162.439 35.5102 162.439 18.9227 162.439 2.45289C162.439 1.86468 162.339 1.86468 161.939 1.86468C160.839 1.86468 159.739 1.86468 158.639 1.86468C158.639 1.98232 158.539 1.98232 158.439 1.98232ZM168.039 26.5695C168.139 26.5695 168.239 26.5695 168.339 26.5695C168.939 26.5695 169.639 26.5695 170.239 26.5695C171.239 26.5695 172.239 26.5695 173.239 26.4518C175.139 26.2165 176.639 25.1578 177.639 23.2755C178.339 21.9814 178.739 20.5697 179.039 19.0404C179.439 16.9228 179.439 14.9229 179.339 12.8054C179.239 10.8055 179.039 8.6879 178.339 6.80563C177.439 4.21751 175.839 2.68817 173.439 2.2176C171.639 1.86468 169.839 2.09996 168.039 2.09996C168.039 2.09996 168.039 2.09996 167.939 2.09996C168.039 10.2172 168.039 18.3345 168.039 26.5695Z" fill="#BDBBBB"/>
<path d="M0.0392305 53.1568C-0.0607695 52.8038 0.0392305 52.8038 0.239231 52.8038C1.33923 52.8038 2.53923 52.8038 3.63923 52.8038C4.13923 52.8038 4.13923 52.6862 4.13923 52.2156C4.13923 43.5101 4.13923 34.8046 4.13923 26.2167C4.13923 18.3346 4.13923 10.5702 4.13923 2.68818C4.13923 2.57053 4.13923 2.57053 4.13923 2.45289C4.13923 2.09996 4.03923 1.98232 3.73923 1.98232C3.03923 1.98232 2.43923 1.98232 1.73923 1.98232C1.13923 1.98232 0.639231 1.98232 0.0392305 1.98232C-0.0607695 1.62939 0.0392305 1.62939 0.239231 1.62939C1.03923 1.62939 1.93923 1.62939 2.73923 1.62939C6.33923 1.62939 9.93923 1.62939 13.5392 1.62939C15.5392 1.62939 17.4392 1.86468 19.3392 2.68818C21.1392 3.39403 22.7392 4.45281 23.9392 6.21745C24.9392 7.62916 25.5392 9.27615 25.8392 11.1584C26.2392 13.5113 26.2392 15.9818 25.6392 18.217C25.1392 20.2169 24.1392 21.9815 22.7392 23.2756C20.9392 25.0402 18.7392 25.8637 16.4392 26.2167C16.3392 26.2167 16.2392 26.2167 16.1392 26.3343C16.5392 26.4519 16.9392 26.4519 17.3392 26.5696C19.3392 27.0402 21.2392 27.746 22.9392 29.0401C25.1392 30.6871 26.5392 33.0399 27.2392 35.981C27.9392 39.3926 27.8392 42.8042 26.7392 45.9806C25.9392 48.3334 24.4392 49.9804 22.5392 51.1569C20.4392 52.4509 18.2392 52.9215 15.8392 53.1568C15.2392 53.1568 14.6392 53.2744 14.1392 53.2744C9.53923 53.2744 4.93923 53.2744 0.339231 53.2744C0.239231 53.1568 0.139231 53.1568 0.0392305 53.1568ZM9.53923 26.4519C9.53923 26.5696 9.53923 26.6872 9.53923 26.8049C9.53923 35.2751 9.53923 43.7454 9.53923 52.3333C9.53923 52.8038 9.63923 52.9215 10.0392 52.9215C11.3392 52.9215 12.6392 52.9215 13.8392 52.9215C16.3392 52.8038 18.3392 51.6274 19.6392 49.1569C20.7392 47.157 21.2392 44.8042 21.4392 42.4513C21.5392 40.8043 21.5392 39.275 21.4392 37.628C21.2392 35.5104 20.9392 33.5105 20.0392 31.6282C18.9392 29.2754 17.4392 27.8637 15.2392 27.1578C13.4392 26.2167 11.5392 26.4519 9.53923 26.4519C9.63923 26.4519 9.63923 26.4519 9.53923 26.4519ZM9.53923 25.9814C9.63923 25.9814 9.63923 25.9814 9.73923 25.9814C10.7392 25.9814 11.7392 25.9814 12.7392 25.9814C14.4392 25.8637 15.9392 25.3932 17.2392 24.0991C18.4392 22.9227 19.2392 21.3933 19.7392 19.6287C20.2392 17.9817 20.4392 16.2171 20.4392 14.4524C20.4392 11.7466 20.1392 9.15851 19.1392 6.68802C18.0392 4.21753 16.3392 2.68818 13.9392 2.09996C12.4392 1.74704 11.0392 1.98232 9.53923 1.86468H9.43923C9.53923 9.98201 9.53923 17.9817 9.53923 25.9814Z" fill="#BDBBBB"/>
<path d="M66.6392 26.9226C66.4392 26.9226 66.3392 26.9226 66.3392 26.6873C66.3392 26.5696 66.3392 26.5696 66.3392 26.452C66.3392 18.3346 66.3392 10.2173 66.3392 2.09997C66.3392 1.62939 66.3392 1.62939 66.7392 1.62939C74.7392 1.62939 82.7392 1.62939 90.7392 1.62939C90.8392 1.62939 90.9392 1.62939 91.1392 1.62939C91.0392 1.98232 90.8392 2.33525 90.7392 2.68818C89.2392 6.68803 87.8392 10.6879 86.3392 14.6877C84.8392 18.8052 83.3392 22.9227 81.9392 26.9226C80.4392 30.9224 79.0392 35.0399 77.5392 39.0397C76.1392 43.0396 74.6392 46.9218 73.2392 50.9217C73.0392 51.3922 72.8392 51.8628 72.7392 52.451C72.6392 52.6863 72.7392 52.8039 72.9392 52.8039C73.0392 52.8039 73.1392 52.8039 73.2392 52.8039C76.4392 52.8039 79.6392 52.8039 82.8392 52.8039C84.0392 52.8039 85.0392 52.3334 85.8392 51.3922C87.0392 50.0982 87.7392 48.4512 88.2392 46.8042C89.0392 44.216 89.5392 41.6279 89.8392 38.9221C90.2392 35.3928 90.3392 31.9812 90.2392 28.4519C90.2392 28.3343 90.2392 28.2166 90.2392 28.099L90.3392 27.9813C90.4392 27.9813 90.4392 28.099 90.5392 28.099C90.5392 28.2166 90.5392 28.2166 90.5392 28.3343C90.5392 36.4516 90.5392 44.6866 90.5392 52.8039C90.5392 52.9216 90.5392 53.0392 90.5392 53.1569C82.4392 53.1569 74.3392 53.1569 66.1392 53.1569C66.4392 52.3334 66.7392 51.6275 66.9392 50.804C68.0392 47.8629 69.1392 44.8042 70.1392 41.8632C71.2392 38.9221 72.3392 35.8634 73.3392 32.9223C74.4392 29.746 75.6392 26.5696 76.7392 23.3933C77.9392 20.2169 79.0392 17.0406 80.2392 13.8642C81.3392 10.8055 82.5392 7.62917 83.6392 4.57046C83.9392 3.8646 84.1392 3.15875 84.4392 2.45289C84.5392 2.09997 84.5392 1.98232 84.1392 1.98232C82.0392 1.98232 79.9392 1.98232 77.8392 1.98232C76.5392 1.98232 75.1392 1.98232 73.8392 1.98232C72.7392 1.98232 71.9392 2.45289 71.1392 3.27639C70.1392 4.33517 69.4392 5.74689 68.9392 7.1586C67.8392 10.0997 67.3392 13.1584 66.9392 16.2171C66.5392 19.6287 66.4392 23.0404 66.5392 26.452C66.6392 26.5696 66.6392 26.6873 66.6392 26.9226Z" fill="#BDBBBB"/>
<path d="M47.4392 53.1566C47.3392 52.8037 47.5392 52.8037 47.7392 52.8037C49.0392 52.8037 50.3392 52.8037 51.6392 52.8037C51.7392 52.8037 51.8392 52.8037 52.0392 52.8037C51.9392 52.4508 51.8392 52.0979 51.8392 51.7449C50.8392 47.2746 49.7392 42.8042 48.7392 38.4514C48.6392 38.0985 48.5392 37.9808 48.2392 37.9808C44.7392 37.9808 41.1392 37.9808 37.6392 37.9808C37.3392 37.9808 37.2392 38.0985 37.2392 38.3338C36.2392 42.8042 35.2392 47.3922 34.2392 51.8626C34.2392 51.9802 34.1392 52.2155 34.1392 52.3332C34.0392 52.8037 34.1392 52.8037 34.4392 52.8037C35.7392 52.8037 36.9392 52.8037 38.2392 52.8037C38.4392 52.8037 38.5392 52.8037 38.5392 53.1566C35.4392 53.1566 32.3392 53.1566 29.2392 53.1566C29.1392 52.8037 29.1392 52.8037 29.4392 52.8037C30.6392 52.8037 31.8392 52.8037 33.0392 52.8037C33.5392 52.8037 33.6392 52.8037 33.7392 52.2155C34.1392 50.4509 34.5392 48.6863 34.9392 46.9216C36.4392 39.8631 38.0392 32.9222 39.5392 25.8637C40.7392 20.4522 41.9392 15.0407 43.0392 9.62913C43.7392 6.57044 44.3392 3.62939 45.0392 0.570699C45.0392 0.453057 45.1392 0.335415 45.2392 0.217773C45.2392 0.335415 45.3392 0.453057 45.3392 0.570699C46.6392 5.98223 48.0392 11.3938 49.3392 16.9229C50.7392 22.805 52.2392 28.5695 53.6392 34.4516C54.8392 39.5102 56.1392 44.4511 57.3392 49.5097C57.6392 50.5685 57.8392 51.5097 58.1392 52.5684C58.2392 52.8037 58.2392 52.9214 58.5392 52.9214C59.9392 52.9214 61.4392 52.9214 62.8392 52.9214C63.0392 52.9214 63.1392 52.9214 63.0392 53.2743C57.7392 53.1566 52.5392 53.1566 47.4392 53.1566ZM48.4392 37.5103C46.5392 29.2753 44.6392 21.158 42.7392 12.9231H42.6392C40.8392 21.0404 39.0392 29.2753 37.2392 37.5103C41.0392 37.5103 44.6392 37.5103 48.4392 37.5103Z" fill="#BDBBBB"/>
<path d="M114.939 1.747C115.639 1.747 116.339 1.747 117.039 1.747C117.039 1.747 117.039 1.747 117.039 1.86464C116.839 1.86464 116.639 1.86464 116.539 1.86464C116.539 2.68811 116.539 3.39395 116.539 4.21743C117.239 4.21743 117.839 4.21743 118.539 4.21743C118.539 3.51159 118.539 2.68811 118.539 1.86464C118.339 1.86464 118.139 1.86464 118.039 1.86464C118.039 1.86464 118.039 1.86464 118.039 1.747C118.739 1.747 119.439 1.747 120.139 1.747C120.139 1.747 120.139 1.747 120.139 1.86464C119.939 1.86464 119.739 1.86464 119.539 1.86464C119.539 3.51159 119.539 5.15854 119.539 6.92313C119.739 6.92313 119.939 6.92313 120.139 6.92313V7.04077C119.439 7.04077 118.739 7.04077 118.039 7.04077C118.039 7.04077 118.039 7.04077 118.039 6.92313C118.239 6.92313 118.439 6.92313 118.639 6.80549C118.639 5.98202 118.639 5.15854 118.639 4.21743C118.039 4.21743 117.339 4.21743 116.739 4.21743L116.639 4.33506C116.639 5.15854 116.639 5.86438 116.639 6.68785C116.839 6.68785 117.039 6.68785 117.239 6.68785C117.239 6.68785 117.239 6.68785 117.239 6.80549C116.539 6.80549 115.839 6.80549 115.139 6.80549C115.139 6.80549 115.139 6.80549 115.139 6.68785C115.339 6.68785 115.539 6.68785 115.739 6.57021C115.739 6.45257 115.739 6.33493 115.739 6.2173C115.739 4.80562 115.739 3.39395 115.739 1.98228C115.739 1.51172 115.739 1.51172 115.339 1.51172C115.139 1.86464 115.039 1.86464 114.939 1.747C114.939 1.86464 114.939 1.86464 114.939 1.747Z" fill="#BDBBBB"/>
<path d="M127.239 4.0997C127.739 3.74677 128.339 3.86441 128.839 4.33499C129.339 4.92321 129.339 5.74673 129.039 6.33495C128.639 7.04082 128.039 7.2761 127.239 6.92317C127.239 7.74668 127.239 8.45255 127.239 9.27606C127.339 9.27606 127.539 9.27606 127.639 9.39371C127.639 9.39371 127.639 9.39371 127.639 9.51135C127.139 9.51135 126.639 9.51135 126.139 9.51135C126.139 9.51135 126.139 9.51135 126.139 9.39371C126.239 9.39371 126.339 9.39371 126.539 9.27606C126.539 7.51139 126.539 5.74672 126.539 4.0997C126.439 4.0997 126.239 4.0997 126.139 4.0997C126.439 3.74677 127.039 3.86441 127.239 4.0997ZM127.239 5.51144C127.239 5.74672 127.239 6.09966 127.239 6.33495C127.239 6.68788 127.439 6.92317 127.639 7.04082C127.939 7.15846 128.239 7.04082 128.339 6.68788C128.439 6.33495 128.539 5.86437 128.539 5.39379C128.539 5.04086 128.439 4.68792 128.339 4.33499C128.239 3.98206 127.939 3.86441 127.639 3.98206C127.339 4.0997 127.139 4.21734 127.139 4.68792C127.239 4.92321 127.239 5.27615 127.239 5.51144Z" fill="#BDBBBB"/>
<path d="M123.139 6.8061C122.939 7.27661 122.439 7.27661 122.039 6.68847C121.639 7.04135 121.139 7.15898 120.639 6.92373C120.439 6.8061 120.239 6.57084 120.239 6.33558C120.239 5.98269 120.339 5.62981 120.539 5.51218C120.839 5.39455 121.139 5.27692 121.539 5.15929C121.739 5.15929 121.939 5.15929 121.939 4.68877C121.939 3.983 121.839 3.86537 121.439 3.74774C121.139 3.74774 121.039 3.86537 121.039 4.10063C121.039 4.21826 120.939 4.45352 120.939 4.45352C120.839 4.45352 120.539 4.45352 120.539 4.33589C120.439 4.21826 120.539 3.983 120.639 3.86537C120.939 3.39485 121.439 3.51248 121.939 3.63011C122.339 3.74774 122.639 4.10063 122.639 4.68877C122.639 5.15929 122.639 5.62981 122.639 6.10032C122.639 6.92373 122.739 7.04135 123.139 6.8061ZM122.039 5.39455C121.839 5.39455 121.739 5.39455 121.639 5.51218C121.139 5.62981 120.939 5.86506 121.039 6.45321C121.039 6.8061 121.239 7.04135 121.539 7.04135C121.839 7.04135 122.139 6.8061 122.139 6.45321C122.039 6.10032 122.039 5.74744 122.039 5.39455Z" fill="#BDBBBB"/>
<path d="M132.639 7.04105C132.739 7.04105 132.839 7.04105 133.039 6.9234C133.039 5.98223 133.039 5.04106 133.039 3.98225C132.939 3.98225 132.839 3.98225 132.639 3.98225C132.939 3.74695 133.639 3.8646 133.739 4.09989C133.939 3.74695 134.239 3.62931 134.639 3.8646C134.839 3.98225 134.939 4.21754 134.939 4.45283C134.939 4.57048 134.739 4.68812 134.639 4.80577C134.439 4.80577 134.339 4.68812 134.339 4.33518C134.339 4.21754 134.339 4.09989 134.339 4.09989C134.239 4.09989 134.139 4.09989 134.139 4.09989C134.039 4.33519 133.839 4.45283 133.839 4.68812C133.839 5.394 133.839 6.21752 133.839 6.9234C133.939 6.9234 134.139 6.9234 134.239 7.04105C134.239 7.04105 134.239 7.04105 134.239 7.15869C133.639 7.04105 133.139 7.04105 132.639 7.04105Z" fill="#BDBBBB"/>
<path d="M124.539 4.21753C124.739 3.86463 125.139 3.747 125.439 3.98226C125.639 4.0999 125.739 4.33516 125.639 4.57043C125.539 4.68806 125.439 4.8057 125.239 4.8057C125.039 4.8057 124.939 4.68806 124.939 4.4528C124.939 4.33516 124.939 4.21753 124.939 4.21753C124.839 4.21753 124.739 4.21753 124.539 4.21753C124.539 4.4528 124.439 4.68806 124.439 4.8057C124.439 5.5115 124.439 6.33493 124.439 7.04073C124.539 7.04073 124.739 7.04073 124.839 7.15837C124.839 7.15837 124.839 7.15837 124.839 7.276C124.339 7.276 123.839 7.276 123.339 7.276C123.339 7.276 123.339 7.276 123.339 7.15837C123.439 7.15837 123.539 7.15837 123.739 7.04073C123.739 6.09967 123.739 5.1586 123.739 4.21753C123.639 4.21753 123.439 4.21753 123.339 4.21753C123.739 3.747 124.439 3.86463 124.539 4.21753Z" fill="#BDBBBB"/>
<path d="M130.439 5.39383C130.439 5.62912 130.439 5.86442 130.439 5.98207C130.439 6.33501 130.439 6.8056 130.839 7.04089C131.239 7.15854 131.639 7.04089 131.939 6.8056C132.039 6.68795 132.039 6.5703 132.139 6.45266L132.239 6.5703C132.139 6.68795 132.139 6.8056 132.039 6.92325C131.339 7.51148 130.439 7.39384 129.939 6.5703C129.439 5.74677 129.639 4.5703 130.439 4.09971C130.839 3.86441 131.339 3.74676 131.839 4.09971C132.239 4.335 132.439 4.80559 132.439 5.39383C132.139 5.39383 131.739 5.39383 131.439 5.39383C131.039 5.39383 130.739 5.39383 130.439 5.39383ZM131.639 5.15853C131.639 4.92324 131.639 4.68794 131.539 4.45265C131.439 3.98206 131.039 3.74676 130.739 3.98206C130.439 4.09971 130.339 4.68794 130.439 5.15853C130.839 5.15853 131.239 5.15853 131.639 5.15853Z" fill="#BDBBBB"/>
<path d="M137.739 3.86471C137.739 4.09999 137.739 4.33527 137.739 4.68818C137.639 4.57054 137.639 4.57054 137.639 4.45291C137.539 4.09999 137.339 3.98235 137.039 3.98235C136.839 3.98235 136.539 3.98235 136.539 4.33527C136.439 4.68818 136.639 4.92346 136.839 5.0411C137.039 5.15874 137.239 5.15874 137.339 5.27638C137.939 5.51166 138.239 5.98221 138.039 6.45277C137.939 6.92333 137.439 7.27625 136.839 7.27625C136.739 7.27625 136.639 7.15861 136.539 7.15861C136.339 7.15861 136.139 7.15861 135.939 7.04097C135.939 6.80569 135.939 6.45277 135.939 6.09985C135.939 6.09985 135.939 6.09985 136.039 6.09985L136.139 6.21749C136.239 6.80569 136.739 7.15861 137.239 7.04097C137.439 7.04097 137.639 6.80569 137.639 6.57041C137.639 6.33513 137.539 6.09985 137.339 5.98221C137.139 5.86458 136.939 5.74694 136.639 5.6293C136.139 5.39402 135.939 5.15874 136.039 4.57054C136.139 4.09999 136.439 3.74707 136.939 3.74707C137.139 3.86471 137.439 3.86471 137.739 3.86471Z" fill="#BDBBBB"/>
<path d="M136.039 3.27706C135.939 3.27706 135.839 3.27706 135.839 3.27706C135.639 3.27706 135.539 3.04179 135.539 2.80652C135.539 2.57125 135.739 2.45361 135.939 2.45361C136.139 2.45361 136.239 2.57125 136.239 2.80652C136.239 3.27706 135.839 3.7476 135.439 3.86523C135.539 3.7476 135.639 3.62996 135.739 3.51233C135.839 3.51233 135.939 3.39469 136.039 3.27706Z" fill="#BDBBBB"/>
</svg>
