<svg width="190" height="38" viewBox="0 0 190 38" fill="none" xmlns="http://www.w3.org/2000/svg">
<path d="M137.175 1.41836C137.075 3.18302 137.075 18.2414 137.275 18.712H138.275C138.375 18.0061 138.375 1.88894 138.275 1.41836H137.175ZM142.875 1.53601C144.775 2.71244 145.375 4.4771 144.975 6.82997C144.575 9.30048 142.975 10.0063 141.075 10.2416C142.475 13.1827 143.775 16.0062 145.175 18.8296H146.475C145.075 15.8885 143.775 13.1827 142.375 10.2416C142.575 10.124 142.675 10.124 142.875 10.124C143.675 9.88871 144.475 9.53578 145.175 8.94756C145.775 8.35934 146.275 7.65348 146.475 6.71233C146.775 4.12417 145.175 1.53601 142.875 1.53601ZM139.675 9.8887C140.675 9.8887 141.575 10.0063 142.375 9.65342C143.675 9.18284 144.475 8.2417 144.675 6.59469C144.675 6.24175 144.775 5.77118 144.775 5.41825C144.675 3.53595 143.575 1.88894 142.175 1.53601C141.375 1.30072 140.575 1.41836 139.775 1.41836V9.8887H139.675ZM140.675 10.124H139.675C139.575 10.5946 139.475 17.5355 139.675 18.712C140.175 18.712 140.675 18.712 141.275 18.712C141.275 18.8296 141.275 18.8296 141.275 18.8296C141.175 18.8296 140.975 18.8296 140.875 18.8296C139.075 18.8296 137.175 18.8296 135.375 18.8296C135.375 18.8296 135.375 18.8296 135.275 18.712C135.775 18.4767 136.275 18.712 136.875 18.5943V1.41836C136.375 1.41836 135.875 1.41837 135.375 1.30072V1.18307C135.475 1.18307 135.575 1.06543 135.675 1.06543C138.075 1.06543 140.575 1.06543 142.975 1.06543C143.975 1.06543 144.875 1.30072 145.775 1.88894C146.675 2.35951 147.475 3.18302 147.675 4.4771C147.975 5.88882 147.775 7.06525 146.975 8.12405C146.175 9.0652 145.175 9.65341 144.075 10.0063C143.975 10.0063 143.775 10.124 143.575 10.124C144.975 12.9474 146.275 15.7709 147.675 18.712H148.775V18.8296C148.675 18.8296 148.575 18.9473 148.575 18.9473C147.375 18.9473 146.175 18.9473 144.975 18.9473C143.475 16.1238 142.075 13.0651 140.675 10.124Z" fill="#BDBBBB"/>
<path d="M15.675 18.7119H16.775V1.41842H15.675V18.7119ZM24.575 1.41842C24.475 2.12428 24.475 18.2413 24.575 18.7119H25.675V1.41842H24.575ZM26.975 18.8295H28.575C28.575 18.9471 28.575 18.9471 28.575 18.9471C26.775 18.9471 24.875 18.9471 23.075 18.9471C22.975 18.9471 22.775 18.9471 22.575 18.9471C22.875 18.5942 23.175 18.7119 23.375 18.7119C23.675 18.7119 23.875 18.7119 24.175 18.7119V8.47697C23.775 8.35932 18.675 8.35932 17.975 8.47697V18.7119C18.475 18.7119 19.075 18.7119 19.575 18.8295C19.175 19.0648 14.075 19.0648 13.575 18.9471C14.175 18.7119 14.675 18.9471 15.275 18.8295V1.41842H13.675C13.675 1.30078 13.675 1.30078 13.675 1.30078C15.575 1.30078 17.475 1.30078 19.275 1.30078C19.375 1.30078 19.475 1.30078 19.575 1.41842C19.075 1.65371 18.575 1.41842 18.075 1.6537C17.975 2.12427 17.975 7.41819 18.075 8.35933H24.175C24.275 7.88876 24.375 2.83013 24.175 1.6537C23.675 1.41842 23.075 1.77135 22.575 1.53606C22.575 1.41842 22.575 1.41842 22.575 1.41842C24.475 1.41842 26.375 1.41842 28.175 1.41842C28.275 1.41842 28.375 1.41842 28.475 1.41842C28.175 1.77135 27.875 1.53606 27.675 1.6537C27.375 1.6537 27.175 1.6537 26.875 1.6537V18.8295H26.975Z" fill="#BDBBBB"/>
<path d="M129.175 18.2411C129.175 18.2411 129.175 18.3587 129.275 18.3587C129.675 18.1234 130.075 17.8881 130.375 17.6528C131.475 16.7117 132.175 15.4176 132.575 13.7706C132.975 12.1235 133.075 10.4765 132.975 8.71186C132.875 7.41777 132.675 6.12369 132.175 4.94724C131.575 3.53551 130.675 2.35906 129.375 1.77084C129.275 1.77084 129.175 1.6532 129.075 1.6532C130.475 2.82964 131.175 4.5943 131.475 6.47661C131.875 8.94715 131.875 11.5353 131.375 14.0059C130.975 15.7705 130.475 17.2999 129.175 18.2411ZM123.275 1.41791H122.175V18.7116H123.275V1.41791ZM124.475 1.41791C124.475 7.06484 124.475 12.4765 124.475 18.0058C124.475 18.2411 124.475 18.3587 124.475 18.594C124.475 18.594 124.475 18.594 124.575 18.594C125.475 18.594 126.375 18.7116 127.275 18.594C128.875 18.4763 129.975 17.4175 130.575 15.6529C130.675 15.2999 130.875 14.8294 130.975 14.4764C131.475 11.7706 131.575 9.06479 131.075 6.35897C130.875 5.30017 130.575 4.35902 130.175 3.41786C129.575 2.24142 128.675 1.53556 127.575 1.30027C126.575 1.30027 125.575 1.41791 124.475 1.41791ZM120.175 18.7116H121.775V1.41791H120.175V1.30027C120.275 1.30027 120.375 1.18262 120.475 1.18262C122.875 1.18262 125.175 1.18262 127.575 1.18262C128.475 1.18262 129.375 1.41791 130.275 1.88849C132.375 2.82965 133.575 4.71195 134.175 7.30013C134.575 9.18244 134.575 11.0647 134.175 12.9471C133.475 16.1235 131.675 18.1234 129.075 18.8293C128.275 19.0646 127.375 19.0646 126.575 19.0646C124.675 19.0646 122.775 19.0646 120.775 19.0646C120.475 19.0646 120.275 19.1822 120.175 18.7116Z" fill="#BDBBBB"/>
<path d="M156.575 7.77066C157.275 8.12359 157.875 8.35888 158.575 8.59416V6.82951C157.875 7.18244 157.275 7.41773 156.575 7.77066ZM157.975 1.41791C158.875 2.12377 159.775 2.82963 160.775 3.53549V1.41791H157.975ZM161.375 16.5939C160.875 17.0645 160.475 17.4174 159.975 17.7704C159.575 18.1233 159.075 18.3586 158.475 18.8292H161.275V16.5939H161.375ZM152.775 18.7115V1.41791H151.675C151.575 2.12377 151.575 18.2409 151.675 18.7115H152.775ZM162.575 15.1822V18.9468C161.975 19.0644 150.075 19.0644 149.575 18.9468C150.175 18.7115 150.675 18.9468 151.275 18.8292V1.41791C150.775 1.30027 150.175 1.41791 149.675 1.30027C149.675 1.18262 149.675 1.18262 149.675 1.18262C149.875 1.18262 149.975 1.18262 150.175 1.18262C154.075 1.18262 157.975 1.18262 161.975 1.18262V5.1825C161.775 4.94721 161.575 4.82957 161.475 4.71192C160.375 3.65313 159.275 2.59434 157.975 1.77083C157.675 1.53555 157.275 1.41791 156.875 1.41791C155.975 1.41791 154.975 1.41791 154.075 1.41791C153.975 1.88848 153.875 6.59422 153.975 7.65301C156.075 7.8883 157.875 6.94715 159.675 5.88836V9.7706C159.475 9.65296 159.275 9.53532 159.075 9.53532C158.275 9.18239 157.475 8.71181 156.575 8.35888C155.675 8.00595 154.875 8.12359 153.975 8.12359C153.875 8.59416 153.875 17.888 153.975 18.9468C154.075 18.9468 154.275 18.9468 154.475 18.9468C155.475 18.9468 156.575 18.9468 157.575 18.9468C157.875 18.9468 158.175 18.8292 158.475 18.7115C159.775 17.888 160.975 16.8292 162.075 15.6528C162.175 15.5351 162.275 15.4175 162.375 15.2998C162.375 15.1822 162.475 15.1822 162.575 15.1822Z" fill="#BDBBBB"/>
<path d="M116.575 3.5359C116.775 2.83005 116.975 2.12421 117.175 1.41836C116.575 1.30072 115.575 1.30072 115.275 1.41836C115.675 2.12421 116.075 2.83005 116.575 3.5359ZM104.575 18.7116H106.575C106.375 17.7705 106.175 16.947 106.075 16.0059C105.575 16.947 105.075 17.7705 104.575 18.7116ZM105.075 1.41836V1.536C108.775 7.18278 112.575 12.8296 116.275 18.4764C116.375 18.594 116.375 18.594 116.475 18.7116C116.475 18.7116 116.475 18.7116 116.575 18.7116C116.575 18.3587 116.575 18.0058 116.575 17.5352C116.575 17.0647 116.475 16.7117 116.275 16.4764C114.675 14.006 113.075 11.5355 111.375 9.18269C109.775 6.71222 108.175 4.35939 106.575 1.88892C106.475 1.65364 106.375 1.41836 106.075 1.41836C105.775 1.41836 105.475 1.41836 105.075 1.41836ZM116.875 19.1822C116.575 19.4175 116.475 19.1822 116.375 18.9469C115.975 18.3587 115.575 17.7705 115.175 17.0647C112.375 12.8296 109.575 8.59448 106.775 4.35939C106.675 4.12411 106.575 4.00647 106.375 3.88882H106.275V4.47703C106.275 7.53571 106.275 10.5944 106.275 13.6531C106.275 14.5942 106.375 15.5353 106.675 16.4764C106.975 17.1823 107.375 17.8882 107.875 18.3587C108.075 18.594 108.375 18.7116 108.675 18.7116C108.975 18.7116 109.275 18.7116 109.575 18.7116V18.8293C109.475 18.8293 109.375 18.9469 109.375 18.9469C107.375 18.9469 105.475 18.9469 103.475 18.9469C103.375 18.9469 103.275 18.9469 103.275 18.8293V18.7116C103.475 18.7116 103.575 18.7116 103.775 18.7116C103.975 18.7116 104.075 18.7116 104.275 18.4764C104.975 17.4176 105.675 16.2412 105.875 14.9471C105.975 14.5942 105.975 14.1236 105.975 13.7707C105.975 10.4767 105.975 7.18279 105.975 3.77118C105.975 3.41826 105.875 3.18297 105.675 2.83005C105.375 2.47713 105.175 2.00656 104.875 1.65364C104.675 1.41835 104.475 1.18308 104.175 1.30072C103.875 1.30072 103.475 1.30072 103.175 1.30072V1.18307C103.275 1.18307 103.375 1.06543 103.475 1.06543C104.775 1.06543 106.075 1.06543 107.375 1.06543C107.675 1.06543 107.775 1.30071 107.975 1.536C109.675 4.12411 111.375 6.59458 112.975 9.18269C114.075 10.8297 115.075 12.359 116.175 14.006C116.275 14.1236 116.375 14.2413 116.575 14.4765C116.575 14.2413 116.575 14.006 116.575 13.8883C116.575 11.0649 116.575 8.24156 116.575 5.53581C116.575 4.71232 116.375 3.88883 115.975 3.18298C115.675 2.59477 115.275 2.1242 114.875 1.536C114.775 1.30071 114.575 1.30072 114.375 1.30072C114.075 1.30072 113.875 1.30072 113.575 1.30072C113.575 1.18308 113.575 1.18307 113.575 1.18307C115.275 1.18307 117.075 1.18307 118.775 1.18307C118.875 1.18307 118.975 1.18308 119.275 1.30072C119.075 1.41836 118.975 1.536 118.975 1.536C118.675 1.536 118.375 1.65364 118.175 2.00656C117.175 3.18298 116.775 4.59467 116.775 6.24165C116.875 10.3591 116.775 14.4765 116.775 18.7116V19.1822H116.875Z" fill="#BDBBBB"/>
<path d="M38.375 8.59416V6.82951C37.675 7.18244 37.075 7.41773 36.375 7.77066C37.075 8.00595 37.775 8.35888 38.375 8.59416ZM40.575 3.53549V1.41791C40.075 1.41791 39.675 1.41791 39.175 1.41791C38.775 1.41791 38.275 1.41791 37.775 1.41791C38.775 2.12377 39.675 2.82963 40.575 3.53549ZM41.275 16.5939C40.775 17.0645 40.275 17.4174 39.875 17.7704C39.475 18.1233 38.975 18.3586 38.475 18.7115C38.975 18.8292 39.375 18.8292 39.875 18.8292C40.375 18.8292 40.775 18.9468 41.275 18.7115V16.5939ZM32.575 1.41791H31.475C31.375 2.59435 31.375 18.2409 31.475 18.7115H32.575V1.41791ZM33.875 18.7115H34.875C35.675 18.7115 36.475 18.7115 37.275 18.7115C37.775 18.7115 38.075 18.5939 38.475 18.3586C39.675 17.5351 40.775 16.5939 41.875 15.5351C41.975 15.4175 42.175 15.1822 42.375 15.0646C42.475 15.5351 42.575 18.0057 42.475 18.9468C41.975 19.0644 29.975 19.0644 29.575 18.9468C30.175 18.7115 30.675 18.9468 31.175 18.8292C31.275 18.3586 31.375 3.18256 31.275 1.53555C30.775 1.53555 30.175 1.53555 29.675 1.41791V1.30027C29.775 1.30027 29.875 1.18262 29.875 1.18262C29.975 1.18262 30.175 1.18262 30.275 1.18262H41.275H41.975V5.06486C41.775 5.1825 41.675 4.94722 41.475 4.82957C40.375 3.77078 39.175 2.71199 37.975 1.88849C37.575 1.6532 37.275 1.53555 36.875 1.53555C36.075 1.53555 35.375 1.53555 34.575 1.53555H33.975V7.77066C36.075 8.00595 37.875 7.0648 39.675 5.88836V9.7706C39.375 9.65296 39.175 9.53531 38.975 9.41767C37.975 8.82945 37.075 8.35888 35.975 8.12359C35.275 8.00595 34.575 8.00595 33.875 8.00595V18.7115Z" fill="#BDBBBB"/>
<path d="M172.875 1.65322C173.175 2.12379 173.575 2.59436 173.875 3.06492V1.53558C173.575 1.53558 173.175 1.53558 172.875 1.65322ZM164.575 16.1231V19.0641C165.275 18.7111 166.075 18.3582 166.675 18.1229C165.975 17.4171 165.275 16.7113 164.575 16.1231ZM167.075 1.41795C167.075 1.41795 167.075 1.30031 166.975 1.30031C166.575 1.65323 166.175 1.8885 165.875 2.24143C164.375 3.65312 164.375 6.00593 165.675 7.6529C166.175 8.35875 166.875 8.82932 167.575 9.18224C168.475 9.6528 169.375 10.1234 170.275 10.7116C171.175 11.1821 171.975 11.7703 172.775 12.3585C173.275 12.7115 173.675 13.2997 174.075 13.8879C174.875 15.4172 174.575 17.4171 173.375 18.4759C173.275 18.5935 173.175 18.7111 173.075 18.8288C173.375 18.7111 173.675 18.5935 173.875 18.3582C175.575 16.9465 175.875 13.7702 174.275 12.0056C173.875 11.5351 173.475 11.1821 172.975 10.8292C172.275 10.3586 171.575 10.0057 170.875 9.53517C169.975 9.0646 169.075 8.59403 168.175 8.12347C167.675 7.77055 167.075 7.41762 166.675 6.94706C165.475 5.65301 165.375 3.77076 166.575 2.35907C166.675 1.8885 166.875 1.65323 167.075 1.41795ZM174.975 0.712102C175.075 1.77087 175.075 4.71189 174.875 5.18245C174.775 4.94717 174.575 4.82953 174.475 4.59424C173.975 3.8884 173.575 3.18256 173.075 2.59435C172.175 1.53559 171.075 0.829743 169.775 0.712102C169.075 0.712102 168.475 0.829735 167.775 1.18266C166.275 2.12378 165.975 4.35896 167.175 5.77065C167.575 6.24122 168.075 6.59414 168.575 6.94706C169.375 7.41762 170.275 7.88819 171.075 8.35876C171.975 8.82932 172.775 9.29988 173.575 9.77044C173.975 10.0057 174.475 10.4763 174.775 10.8292C176.575 12.7115 176.375 15.5348 175.075 17.2995C174.275 18.4759 173.175 19.0641 171.975 19.2994C170.675 19.6523 169.275 19.5346 168.075 18.8288C167.975 18.8288 167.975 18.8288 167.875 18.7111C166.875 18.0053 165.975 18.2406 164.975 18.8288C164.675 18.9464 164.475 19.1817 164.075 19.417V13.8879C164.075 13.8879 164.175 13.8879 164.175 13.7702C164.275 13.8879 164.375 14.1232 164.475 14.2408C165.075 15.1819 165.675 16.123 166.275 16.9465C167.175 18.0053 168.275 18.8288 169.575 19.0641C170.475 19.2994 171.475 19.1817 172.375 18.5935C174.175 17.5347 174.575 14.9466 173.275 13.182C172.775 12.4762 172.075 11.888 171.475 11.5351C170.475 10.9469 169.575 10.4763 168.575 9.88808C167.775 9.41752 167.075 8.94696 166.275 8.4764C165.875 8.12347 165.375 7.77055 165.075 7.29999C164.075 6.00594 164.075 4.24132 164.875 2.82963C165.375 2.00615 165.975 1.41794 166.775 1.06502C168.275 0.359174 169.875 0.241536 171.375 0.829741C172.375 1.3003 173.275 1.30031 174.275 0.712102C174.575 0.829743 174.775 0.829743 174.975 0.712102Z" fill="#BDBBBB"/>
<path d="M187.775 1.41822C187.375 1.53586 186.975 1.53586 186.575 1.6535C186.975 2.12407 187.375 2.59465 187.775 3.06521V1.41822ZM180.475 18.0058C179.775 17.4176 179.075 16.7117 178.375 16.0059V18.9469C179.075 18.7116 179.775 18.3587 180.475 18.0058ZM186.975 18.4763C186.975 18.4763 186.975 18.594 187.075 18.594C187.275 18.4763 187.475 18.2411 187.675 18.1234C189.475 16.7117 189.675 13.5354 188.175 11.7707C187.675 11.3002 187.175 10.8296 186.575 10.359C185.775 9.88846 184.975 9.41789 184.175 8.94732C183.275 8.47675 182.475 8.00618 181.575 7.53561C180.975 7.18269 180.475 6.71212 180.075 6.12391C179.375 5.18277 179.275 3.8887 179.775 2.82992C179.975 2.35936 180.275 2.00643 180.575 1.6535C180.675 1.53586 180.775 1.41822 180.875 1.30058C180.875 1.30058 180.875 1.18293 180.775 1.18293C180.375 1.41822 180.075 1.77115 179.675 2.00643C178.175 3.41814 178.075 5.88862 179.475 7.41797C179.975 8.00618 180.575 8.47675 181.175 8.82967C181.975 9.41788 182.875 9.77082 183.675 10.2414C184.475 10.712 185.275 11.1825 186.075 11.6531C186.675 12.006 187.175 12.5942 187.575 13.1824C188.475 14.4765 188.575 16.947 187.175 18.1234C187.075 18.3587 186.975 18.4763 186.975 18.4763ZM188.775 0.71237V5.30041C188.575 5.06512 188.475 5.06513 188.475 4.94749C188.075 4.35928 187.675 3.77107 187.275 3.18285C186.475 2.12407 185.575 1.41822 184.475 1.06529C183.575 0.830007 182.775 0.830012 181.875 1.30058C180.075 2.12408 179.775 4.59456 181.175 6.12391C181.675 6.59448 182.275 7.06504 182.875 7.41797C183.675 7.88854 184.575 8.24147 185.375 8.71203C186.075 9.06496 186.675 9.41789 187.375 9.88846C187.775 10.1237 188.175 10.4767 188.475 10.8296C190.675 12.9472 190.275 16.3588 188.375 18.1234C187.375 19.0645 186.275 19.5351 185.075 19.6528C183.975 19.7704 182.875 19.5351 181.875 19.0646C181.775 19.0646 181.775 19.0646 181.675 18.9469C180.675 18.2411 179.775 18.4763 178.775 19.0646C178.475 19.1822 178.275 19.4175 177.975 19.6528V14.1236H178.075C178.175 14.2412 178.275 14.4765 178.375 14.5941C178.975 15.4176 179.475 16.3588 180.175 17.1823C181.075 18.2411 182.175 19.0645 183.475 19.2998C184.475 19.5351 185.375 19.4175 186.275 18.8293C187.975 17.7705 188.475 15.3 187.275 13.5354C186.875 13.0648 186.475 12.5942 185.975 12.2413C185.275 11.6531 184.475 11.3002 183.675 10.8296C182.775 10.2414 181.775 9.77081 180.875 9.1826C180.275 8.82968 179.675 8.35911 179.175 7.7709C177.775 6.12391 177.775 3.77106 179.275 2.24171C180.075 1.41822 181.075 0.947655 182.175 0.71237C183.275 0.477086 184.375 0.594723 185.475 1.06529C186.275 1.41822 187.175 1.41822 187.975 1.06529C188.275 0.830007 188.475 0.830012 188.775 0.71237Z" fill="#BDBBBB"/>
<path d="M74.575 15.773C73.875 16.8317 73.275 17.7729 72.575 18.714H74.675C74.675 17.7729 74.575 16.8317 74.575 15.773ZM79.475 2.59705H79.375C79.275 2.94998 79.175 3.30291 78.975 3.65583C78.875 4.00876 78.875 4.24404 78.975 4.59696C80.575 9.06736 82.075 13.5378 83.675 18.1258C83.775 18.3611 83.775 18.4787 83.875 18.714H85.075C83.275 13.3025 81.375 8.00859 79.475 2.59705ZM78.775 4.83225H78.675C77.775 7.30274 76.975 9.65557 76.075 12.1261H81.375C80.475 9.65557 79.575 7.18509 78.775 4.83225ZM77.875 18.9493C77.375 19.0669 71.875 19.0669 71.475 18.9493C71.575 18.9493 71.575 18.8317 71.675 18.8317C72.075 18.9493 72.275 18.5964 72.575 18.3611C73.775 16.8317 74.675 15.1848 75.375 13.3025C76.775 9.30265 78.275 5.30282 79.675 1.30299C79.775 1.06771 79.875 0.832418 79.975 0.479492C80.175 0.832418 80.275 1.06771 80.275 1.30299C81.975 6.00867 83.575 10.7144 85.275 15.5377C85.575 16.4788 85.875 17.4199 86.275 18.2434C86.375 18.4787 86.375 18.5964 86.475 18.8317C86.875 18.8317 87.375 18.8317 87.775 18.9493C87.475 19.1846 82.575 19.3022 81.975 19.0669C82.175 18.714 82.475 18.9493 82.775 18.9493C83.075 18.9493 83.275 18.9493 83.675 18.9493C83.575 18.714 83.575 18.5964 83.575 18.4787C82.975 16.7141 82.275 14.9495 81.675 13.1848C81.575 12.8319 81.375 12.7143 80.975 12.7143C79.475 12.7143 77.975 12.7143 76.375 12.7143C76.075 12.7143 75.875 12.8319 75.775 13.1848C75.575 13.6554 75.475 14.126 75.275 14.7142C74.975 15.42 74.975 16.2435 75.275 16.9494C75.575 17.6552 75.875 18.3611 76.175 19.0669H77.875C77.875 18.8317 77.875 18.8317 77.875 18.9493Z" fill="#BDBBBB"/>
<path d="M0.275001 3.30005C0.975002 2.71184 1.575 2.12363 2.275 1.41778H0.275001V3.30005ZM11.575 3.30005V1.53542C10.975 1.41778 9.67502 1.41778 9.37502 1.53542C10.075 2.00599 10.775 2.5942 11.575 3.30005ZM6.37501 1.41778H5.27501V18.7111H6.37501V1.41778ZM4.87501 1.41778C4.47501 1.30014 4.07501 1.41778 3.67501 1.65306C2.575 2.35891 1.475 3.30005 0.475001 4.47646C0.375001 4.5941 0.275001 4.71175 0.175 4.82939H0.0750001C-0.025 4.35882 -0.025 2.12364 0.0750001 1.30015C0.475001 1.1825 11.575 1.1825 12.575 1.30015C12.675 1.77071 12.675 4.0059 12.575 4.94703C12.375 5.06467 12.275 4.82938 12.175 4.5941C11.175 3.41769 10.175 2.47655 8.87502 1.7707C8.47502 1.53542 8.17502 1.41778 7.67501 1.65306V18.9464H9.27502V19.064C9.17502 19.064 9.17502 19.1816 9.07502 19.1816C7.27501 19.1816 5.37501 19.1816 3.57501 19.1816C3.47501 19.1816 3.47501 19.1816 3.37501 19.064V18.9464H4.87501C4.97501 18.2405 5.07501 2.71184 4.87501 1.41778Z" fill="#BDBBBB"/>
<path d="M99.975 4.35911C100.075 4.12383 100.075 4.00618 100.075 3.88854C100.175 3.06503 100.275 2.24153 100.475 1.41803C99.875 1.30039 98.875 1.30039 98.575 1.53567C99.175 2.35918 99.675 3.18268 99.975 4.35911ZM92.275 19.0645C92.175 18.9469 92.075 18.9469 92.075 18.9469C91.175 18.4763 90.575 17.5351 90.375 16.4764C90.275 15.7705 90.175 15.0646 90.175 14.3588C90.175 10.3589 90.175 6.35904 90.175 2.35917V1.53567H88.975C88.975 1.65332 88.975 1.77096 88.975 1.88861C88.975 6.12376 88.975 10.4766 88.975 14.7117C88.975 17.4175 89.975 18.7116 92.175 19.1821C92.175 19.0645 92.175 19.0645 92.275 19.0645ZM96.975 1.18274C97.475 1.0651 101.975 1.0651 102.475 1.30039C101.575 1.41803 101.275 2.12389 100.875 2.82975C100.375 3.65325 100.075 4.5944 100.075 5.65318C100.075 8.24133 100.075 10.8295 100.075 13.3C100.075 14.0058 100.075 14.8294 99.975 15.5352C99.775 17.1822 98.975 18.3587 97.675 18.9469C97.075 19.1822 96.475 19.2998 95.875 19.4174C94.375 19.5351 92.875 19.5351 91.375 19.1821C91.275 19.1821 91.175 19.0645 90.975 19.0645C89.475 18.4763 88.675 17.1822 88.575 15.2999C88.575 14.947 88.575 14.4764 88.575 14.1235C88.575 10.1236 88.575 6.2414 88.575 2.24153V1.41803C87.975 1.30039 87.475 1.41803 86.875 1.30039C87.275 1.0651 92.275 1.0651 92.875 1.18274C92.675 1.53567 92.375 1.30039 92.075 1.30039C91.775 1.30039 91.575 1.30039 91.275 1.30039C91.275 1.53568 91.175 1.65331 91.175 1.77096C91.175 6.12375 91.175 10.4766 91.175 14.947C91.175 15.5352 91.275 16.1234 91.375 16.7116C91.575 18.0057 92.275 18.7116 93.275 18.9469C94.675 19.2998 96.175 19.1821 97.575 18.5939C99.075 18.0057 99.575 16.594 99.775 14.947C99.775 14.5941 99.775 14.2411 99.775 14.0058C99.775 11.3001 99.775 8.59426 99.775 5.88847C99.775 4.12382 99.075 2.71211 98.075 1.53567C97.975 1.41803 97.775 1.41803 97.675 1.30039C97.475 1.30039 97.175 1.30039 96.975 1.30039C96.975 1.30039 96.975 1.30038 96.975 1.18274Z" fill="#BDBBBB"/>
<path d="M69.275 18.7109C69.275 17.8874 69.275 17.1815 69.275 16.3581C68.375 17.1815 67.575 17.8874 66.575 18.7109H69.275ZM60.575 18.7109V1.41764C60.175 1.41764 59.775 1.3 59.475 1.41764C59.375 2.71169 59.375 18.1227 59.575 18.7109H60.575ZM70.375 14.8287C70.475 15.2993 70.575 18.2403 70.375 18.9462H57.475C57.675 18.5932 57.975 18.7109 58.175 18.7109C58.475 18.7109 58.675 18.7109 58.975 18.7109V1.41764C58.475 1.18235 57.875 1.53528 57.275 1.3C57.775 1.06471 62.775 1.06471 63.375 1.3C62.775 1.53528 62.275 1.29999 61.675 1.53528V18.8285C61.875 18.8285 61.975 18.8285 62.075 18.8285C63.175 18.8285 64.175 18.8285 65.275 18.8285C65.575 18.8285 65.775 18.7109 66.075 18.5932C67.275 17.5345 68.575 16.4757 69.775 15.2993C70.075 15.064 70.175 14.9464 70.375 14.8287Z" fill="#BDBBBB"/>
<path d="M88.575 30.5927H89.375C88.575 32.9455 87.775 35.2983 86.975 37.7688C86.375 36.0042 85.875 34.4748 85.375 32.8279C85.075 33.1808 85.075 33.6514 84.875 34.0043C84.775 34.3572 84.575 34.8278 84.475 35.1807C84.375 35.5336 84.175 36.0042 84.075 36.3571C83.975 36.71 83.775 37.1806 83.575 37.5335C82.775 35.1807 81.975 32.8279 81.175 30.4751H81.975C82.475 32.0044 82.975 33.6514 83.575 35.2983H83.675C84.275 33.769 84.675 32.122 85.275 30.3574C85.875 32.122 86.375 33.769 86.875 35.416C87.475 33.8867 88.075 32.2397 88.575 30.5927Z" fill="#BDBBBB"/>
<path d="M108.475 34.1224C108.475 32.5931 107.475 31.2991 106.175 31.2991C104.875 31.2991 103.875 32.4755 103.775 34.1224C103.775 35.6518 104.775 36.9458 106.075 36.9458C107.375 36.9458 108.375 35.6518 108.475 34.1224ZM106.075 37.7693C104.375 37.7693 103.075 36.24 102.975 34.1224C102.975 32.1225 104.275 30.4756 105.975 30.4756C107.675 30.4756 109.075 32.1225 109.075 34.1224C109.175 36.1223 107.775 37.7693 106.075 37.7693Z" fill="#BDBBBB"/>
<path d="M67.175 30.4756C68.575 32.2403 69.975 33.8873 71.375 35.652H71.475C71.475 35.1814 71.475 34.5931 71.475 34.1226C71.475 33.5343 71.475 32.9461 71.475 32.4756V30.8285H72.075C72.175 31.2991 72.175 37.1813 72.075 37.8872C70.675 36.1225 69.275 34.3579 67.875 32.7108H67.775C67.775 33.2991 67.775 33.7696 67.775 34.3579C67.775 34.9461 67.775 35.4167 67.775 36.0049V37.6519H67.075L67.175 30.4756C67.075 30.4756 67.175 30.4756 67.175 30.4756Z" fill="#BDBBBB"/>
<path d="M119.775 34.3579C119.475 34.4755 119.475 34.7108 119.475 35.0638C119.475 35.652 119.475 36.2402 119.475 36.8285C119.475 37.0638 119.475 37.2991 119.475 37.5344H118.875C118.775 37.0638 118.775 31.2991 118.875 30.5932H119.475V33.5344C119.675 33.4167 119.775 33.2991 119.875 33.1814C120.475 32.4756 121.075 31.7697 121.575 31.0638C121.875 30.5932 122.275 30.4756 122.775 30.5932C122.375 31.1814 121.975 31.652 121.575 32.1226C121.175 32.5932 120.775 33.0638 120.275 33.652C121.175 34.9461 122.075 36.2402 122.975 37.5344C122.375 37.652 121.975 37.652 121.675 37.0638C120.975 36.1226 120.375 35.2991 119.775 34.3579Z" fill="#BDBBBB"/>
<path d="M112.975 33.8868C113.475 34.0044 113.875 33.8868 114.275 33.6515C114.675 33.4162 114.775 33.0633 114.775 32.5928C114.775 32.1222 114.675 31.7693 114.275 31.534C113.875 31.2988 113.475 31.1811 112.975 31.2988V33.8868ZM115.775 37.5335C115.275 37.6511 114.875 37.6511 114.675 37.0629C114.275 36.3571 113.875 35.6513 113.475 34.9455C113.375 34.8279 113.275 34.5926 112.975 34.7102V37.6511H112.275V30.7106C112.975 30.5929 113.675 30.5929 114.375 30.8282C115.075 31.0635 115.375 31.6517 115.475 32.4751C115.575 33.1809 115.175 34.0044 114.675 34.3573C114.575 34.4749 114.375 34.4749 114.175 34.5926C114.575 35.5337 115.175 36.5924 115.775 37.5335Z" fill="#BDBBBB"/>
<path d="M75.575 30.5933H78.675C78.675 30.8285 78.675 31.0638 78.675 31.2991H76.275V33.299H78.575C78.575 33.5343 78.575 33.7696 78.575 34.1225H76.275V36.8282H78.575V37.5341H75.475V30.5933H75.575Z" fill="#BDBBBB"/>
<path d="M98.775 37.5338H97.975C97.975 36.828 97.975 36.1221 97.975 35.4163C97.975 34.828 97.875 34.3575 97.575 33.7693C97.075 32.7105 96.575 31.7693 96.075 30.7105C96.775 30.4753 96.775 30.4753 97.175 31.1811C97.575 32.0046 97.875 32.7105 98.375 33.534C98.875 32.4752 99.375 31.534 99.775 30.5929H100.575C100.475 30.8282 100.375 31.0635 100.275 31.1811C99.775 32.1222 99.375 33.0634 98.875 34.0045C98.775 34.2398 98.675 34.5928 98.675 34.9457C98.775 35.8868 98.775 36.7103 98.775 37.5338Z" fill="#BDBBBB"/>
</svg>
