<svg width="184" height="34" viewBox="0 0 184 34" fill="none" xmlns="http://www.w3.org/2000/svg">
<path d="M170.5 1.47266C170.1 1.82559 169.7 2.17851 169.2 2.41379C167.5 1.11974 165.2 0.649177 162.7 0.884459C159.9 1.11974 158.1 2.76672 156.4 4.17841C155.7 2.06087 153.6 1.11974 151.4 1.0021C149.7 0.884459 147.8 1.0021 146.2 1.70795C144.6 2.41379 143.5 3.47256 142.3 4.17841C141.9 3.5902 141.6 3.002 141.2 2.41379C140.7 2.06087 140.2 1.70795 139.5 1.59031C137.8 1.35502 135.9 1.59031 134 1.59031C132.1 1.59031 130.2 1.59031 128.4 1.59031C127.2 2.88436 125.8 3.94313 124.5 5.23718C124.1 5.70775 123.5 6.06067 123.3 6.53123C122.9 7.23708 122.8 8.76642 122.6 9.70754C120.7 17.4719 119 25.7067 117.3 33.1181C118.4 33.2358 119.4 33.1181 120.4 33.1181C121.4 33.1181 122.6 33.4711 123.5 33.2358C123.9 33.1181 124.5 32.4123 124.9 31.9417C126.4 30.6477 127.8 29.236 129.2 28.0596C129.5 27.1184 129.7 26.0597 130.1 25.2362C131.2 25.3538 132.2 25.0009 133 24.8833C132.4 28.8831 133.8 31.7064 136.4 32.6476C140.5 34.1769 145.4 32.0594 147.9 29.8242C149.1 31.4712 150.3 32.6476 152.4 33.0005C155.6 33.4711 157.9 32.5299 159.9 31.2359C160.5 30.8829 161 30.4124 161.6 30.0595C162.2 29.5889 162.8 29.1183 163.4 28.883C163.3 30.2947 162.8 31.7064 162.7 32.8828C164.8 32.8828 166.7 32.7652 168.7 32.8828C170.6 31.2359 172.4 29.4713 174.3 27.8243C175.5 22.4128 176.8 17.1189 178 11.7074C179.6 10.1781 181.1 8.64877 182.6 7.0018C183 5.23718 183.5 3.47256 183.8 1.47266C178.7 1.35502 174.1 1.47266 170.5 1.47266ZM130.2 19.2365C129.5 21.5893 129 24.0598 128.4 26.5302C127.1 26.6479 125 26.6479 123.8 26.5302C125.5 18.5306 127.4 10.531 129.2 2.53143C131.9 2.41379 134.4 2.41379 137.1 2.41379C138 2.41379 139 2.29615 139.7 2.41379C140.8 2.64908 141.5 3.94313 141.5 5.5901C141.5 6.53123 141.2 7.59 141 8.53113C140.6 10.6487 140.3 12.2956 139.6 14.1779C139.2 15.3543 138.9 16.6484 138.2 17.3542C136.4 19.5894 133.5 19.4718 130.2 19.2365ZM151.9 22.7657C151.6 23.5892 151 24.5303 150.6 25.1185C148.8 27.4714 144.9 28.5301 141.5 27.4714C139.7 27.0008 138.3 25.1185 138.6 22.6481C138.7 21.9422 138.9 21.2364 139.1 20.5305C140 16.5307 141 12.4133 142 8.17821C142.2 7.47236 142.2 6.64887 142.5 6.06067C142.6 5.82539 143 5.35482 143.4 4.88426C143.9 4.29605 144.2 4.06077 144.7 3.5902C145.7 2.76672 147.4 2.17851 149.1 1.94323C149.8 1.82559 151.7 1.82559 152.8 2.17851C153.7 2.41379 154.9 3.11964 155.3 3.70785C155.8 4.41369 155.8 5.70775 155.7 6.76652C155.6 8.06057 155.1 9.47226 154.8 10.884C154.2 13.4721 153.6 16.1778 152.9 18.8836C152.5 20.1776 152.2 21.5893 151.9 22.7657ZM168.5 10.531C167.2 10.4134 165.5 10.6487 164 10.4134C164.3 9.11934 164.8 6.41359 163.1 6.17831C162.5 6.06067 161.5 6.53123 161.3 7.11944C161.1 7.82529 161.2 8.88406 161.6 9.70754C162.2 10.884 163.4 11.8251 164.3 13.0015C165.4 14.2955 166.7 15.7072 166.9 18.0601C167.1 20.2952 166.4 22.6481 165.4 24.0598C164.9 24.7656 164.1 25.3538 163.3 25.942C161.9 27.0008 160.3 27.589 157.9 27.589C155.3 27.589 152.8 26.2949 152.6 23.2363C152.5 21.5893 153.1 20.4129 153.4 18.7659C154.8 18.6483 156.7 18.7659 158.2 18.6483C158 20.1776 157.5 21.7069 158.7 22.4128C158.8 22.5304 158.9 22.4128 159 22.4128C159.1 22.4128 159.1 22.5304 159.3 22.6481C160.9 22.7657 161.6 20.8835 161.2 19.3541C161.1 18.8836 160.8 18.413 160.6 18.0601C159.9 17.0013 159 15.9425 158.2 14.6485C157.4 13.4721 156.5 12.2956 156.1 10.884C155.7 9.47226 156.3 6.53123 157 5.47246C157.9 4.06077 159.4 2.76672 161.2 2.29615C162.1 2.06087 162.8 1.59031 163.9 1.70795C165.7 1.70795 167.3 2.06087 168.5 3.11964C170.1 4.76662 169.2 8.41349 168.5 10.531ZM181.4 6.64887C180.3 6.88416 179 6.76652 178 6.76652C176.4 13.4721 175 19.9423 173.4 26.6479C172 26.7655 170.3 26.7655 168.9 26.6479C170.3 19.9423 172 13.4721 173.4 6.64887C172.5 6.53123 171.4 6.64888 170.4 6.53123C170.6 5.11954 170.9 3.82549 171.2 2.53143C174.8 2.41379 178.1 2.41379 182.4 2.41379C182.1 3.70785 181.7 5.23718 181.4 6.64887Z" fill="#BDBBBB"/>
<path d="M89.1 10.5293C89.4 9.23525 89.8 7.58827 90 6.29421C90.1 5.70601 90.1 5.00016 90 4.64723C89.5 1.47091 86.3 1.23563 83.1 1.58856C80.4 1.82384 78.6 3.23554 77.4 5.23544C76.7 6.41186 76.4 7.23535 76.1 8.76468C75.4 11.941 74.5 15.4702 73.9 18.6466C73.5 20.6465 72.6 22.9993 73 25.1168C73.2 26.1756 74.6 26.9991 75.3 27.352C77.9 28.4108 81.7 27.705 83.5 26.1756C84.5 25.3521 85.7 24.0581 86.2 22.6464C86.6 21.5876 86.8 20.1759 87.2 18.6466C87.8 15.9408 88.5 13.1174 89.1 10.5293ZM84.4 9.35289C84.1 11.1175 83.5 13.2351 83.1 14.882C82.5 17.4702 82.1 19.9406 81.3 22.1758C80.8 22.8817 79.3 23.1169 78.6 22.5287C77.9 21.5876 78.8 19.3524 79.1 18.0584C79.9 14.9997 80.5 12.0586 81.2 8.99997C81.3 8.41176 81.4 7.58827 81.6 7.23535C82.1 6.29421 84.5 5.70601 84.7 7.23535C84.8 7.82355 84.5 8.76468 84.4 9.35289Z" fill="white"/>
<path d="M168.5 3.11873C167.3 2.1776 165.7 1.82467 163.9 1.70703C162.8 1.70703 162.1 2.1776 161.2 2.29524C159.4 2.76581 157.9 4.05987 157 5.47157C156.3 6.53035 155.8 9.4714 156.1 10.8831C156.5 12.2948 157.4 13.4712 158.2 14.6476C159 15.9417 160 17.0005 160.6 18.0593C160.8 18.4122 161.1 18.8828 161.2 19.3533C161.6 20.8827 160.9 22.7649 159.3 22.6473C159.1 22.6473 159.1 22.5297 159 22.412C158.9 22.412 158.8 22.5297 158.7 22.412C157.4 21.7062 157.9 20.2945 158.2 18.6475C156.7 18.6475 154.8 18.6475 153.4 18.7651C153.1 20.4121 152.5 21.4709 152.6 23.2355C152.7 26.2942 155.2 27.5883 157.9 27.5883C160.2 27.5883 161.8 27 163.3 25.9413C164.1 25.3531 164.9 24.7649 165.4 24.059C166.4 22.6473 167.1 20.2945 166.9 18.0593C166.7 15.7064 165.4 14.2947 164.3 13.0007C163.4 11.9419 162.2 10.8831 161.6 9.70668C161.2 8.88319 161.1 7.82441 161.3 7.11856C161.5 6.53035 162.5 6.05978 163.1 6.17742C164.7 6.53035 164.2 9.11847 164 10.4125C165.4 10.5302 167.1 10.4125 168.5 10.5302C169.2 8.41262 170.1 4.76572 168.5 3.11873Z" fill="white"/>
<path d="M154.7 10.7653C155 9.35357 155.4 7.94186 155.6 6.6478C155.7 5.58903 155.7 4.29497 155.2 3.58912C154.8 3.00091 153.6 2.29505 152.7 2.05977C151.6 1.70685 149.8 1.82449 149 1.82449C147.4 2.05977 145.7 2.76562 144.6 3.47147C144 3.94204 143.7 4.17732 143.3 4.76553C143 5.2361 142.6 5.58903 142.4 5.94195C142.2 6.53016 142.1 7.35365 141.9 8.05951C140.9 12.177 139.9 16.4121 139 20.4119C138.8 21.1178 138.6 21.8236 138.5 22.5295C138.2 25.1176 139.6 26.8822 141.4 27.3528C144.8 28.2939 148.7 27.2351 150.5 24.9999C150.9 24.4117 151.6 23.4706 151.8 22.6471C152.2 21.5883 152.4 20.059 152.8 18.6473C153.5 16.1768 154.2 13.471 154.7 10.7653ZM150.1 9.35357C149.5 12.177 148.9 15.0004 148.2 17.8238C147.9 19.0002 147.8 20.1766 147.5 21.1178C147.4 21.4707 147.1 22.0589 147 22.2942C146.4 23.1177 144.7 23.353 143.9 22.6471C143.9 22.4118 143.8 22.1765 143.7 22.0589C143.7 20.4119 144.2 19.0002 144.6 17.4709C145.2 15.118 145.7 12.7652 146.3 10.1771C146.6 9.00064 146.9 7.4713 147.5 6.88309C148.3 6.17724 150.3 6.05959 150.5 7.58894C150.5 8.05951 150.2 8.64772 150.1 9.35357Z" fill="white"/>
<path d="M55.6 2.52972C53.9 6.52959 52.4 10.6471 50.6 14.5293C50.8 10.5295 51.2 6.64724 51.4 2.52972C49.9 2.41208 48.3 2.41208 46.9 2.41208C45.5 5.82373 44.2 9.47068 42.8 12.7647C42.6 13.2353 42.5 13.8235 42.1 14.1764C42.4 10.4118 42.7 6.29431 43 2.41208C37.7 2.29443 32.4 2.29443 27.4 2.41208C25.6 10.4118 23.8 18.4116 22.1 26.529C25.3 26.6466 29.1 26.529 32.6 26.6466C33 25.3525 33.4 23.9408 33.8 22.5291C31.9 22.4114 29.8 22.5291 27.8 22.4114C28.3 20.4115 28.7 18.1763 29.3 16.294C31.4 16.294 33.2 16.294 34.8 16.1763C35 14.7646 35.5 13.3529 35.7 12.0588C33.9 12.0588 31.8 12.0588 30.2 11.9412C30.8 10.1765 31.1 8.1766 31.7 6.41195C33.7 6.41195 36 6.41195 37.8 6.52959C37.6 13 37 19.7056 36.9 26.4113C38.7 26.4113 40.1 26.4113 41.4 26.529C42.7 23.1173 44 19.588 45.4 16.1763C45.9 14.9999 46.2 13.8235 46.8 12.7647C46.5 17.4704 46 21.7056 45.8 26.2937C47.3 26.529 48.6 26.2937 50.2 26.4113C53.4 18.4116 56.6 10.4118 59.8 2.29443C58.3 2.41208 56.8 2.52972 55.6 2.52972Z" fill="white"/>
<path d="M21.4 2.41211C20.3 6.17671 19.5 10.2942 18.4 14.0588C17.9 10.2942 17.6 6.29435 17.2 2.52975C15.6 2.41211 13.7 2.52975 11.9 2.41211C11.8 2.41211 11.8 2.52975 11.7 2.6474C10 10.6472 8.2 18.4117 6.5 26.5291C7.7 26.6467 9.1 26.5291 10.4 26.6467C11.7 22.2939 12.5 17.4705 13.8 13.1177C14.4 17.5882 14.7 22.0586 15.2 26.6467C16.7 26.6467 18.2 26.6467 19.7 26.6467C21.7 18.647 23.4 10.7648 25.3 2.6474C24.4 2.29447 22.7 2.52975 21.4 2.41211Z" fill="white"/>
<path d="M73.5 2.53012C71.9 5.35349 70.5 8.64742 68.9 11.1179C68.8 8.2945 68.6 5.35349 68.4 2.53012C66.5 2.41248 65.4 2.41248 63.6 2.53012C64.1 6.64754 64.6 10.6473 65 14.8824C65.1 15.7058 65.3 16.4117 65.2 17.1175C64.7 20.2938 63.6 23.4701 63.2 26.6464C64.6 26.764 66.2 26.6464 67.7 26.764C68.3 24.2936 69 21.9408 69.5 19.7056C69.7 18.8821 69.8 17.941 70 17.2352C70.2 16.647 70.7 16.0588 71 15.4706C73.3 11.1179 75.9 7.00046 78.1 2.76541C76.6 2.53013 74.8 2.53012 73.5 2.53012Z" fill="white"/>
<path d="M171.1 2.53012C170.8 3.82415 170.5 5.00055 170.3 6.52985C171.3 6.52985 172.4 6.41221 173.3 6.64749C171.9 13.4706 170.2 19.8231 168.8 26.6461C170.2 26.7638 171.9 26.7638 173.3 26.6461C174.9 20.0584 176.3 13.4706 177.9 6.76513C178.9 6.76513 180.2 6.88277 181.3 6.64749C181.6 5.23582 182 3.82415 182.2 2.53012C178 2.41248 174.7 2.41248 171.1 2.53012Z" fill="white"/>
<path d="M102.8 16.9997C102.9 15.4703 102 15.3527 101.2 14.7645C102.2 14.0586 103.5 13.5881 104 12.294C104.2 11.5882 104.5 10.4118 104.7 9.23535C105.2 7.11781 106.2 4.41207 104.6 3.11802C103.8 2.41217 101.6 2.52981 100.2 2.52981C97.8 2.52981 95.2 2.64745 92.6 2.64745C91.6 6.52961 90.8 10.5294 89.9 14.6468C89 18.6466 88 22.6464 87.2 26.7639C88.6 26.8815 90.3 26.7639 91.9 26.8815C92.7 23.5876 93.4 20.176 94.3 17.1173C95.3 17.2349 97 16.7644 97.3 17.8231C97.4 18.2937 97.1 19.3525 96.9 20.0583C96.5 22.2935 95.8 24.8816 95.6 26.8815C97.5 26.9991 98.8 26.9991 100.5 26.9991C100.9 24.9992 101.7 21.9406 102.2 19.823C102.5 18.6466 102.7 17.5879 102.8 16.9997ZM99.8 8.52951C99.7 9.58827 99 11 98.8 12.0587C98.2 12.8822 96.3 12.6469 95.3 12.6469C95.8 10.647 96.2 8.64715 96.8 6.88253C98.2 7.00017 100.1 6.05904 99.8 8.52951Z" fill="white"/>
<path d="M114.5 13.2354C115.6 11.4708 116.8 9.70616 118 7.94156C119.2 6.17696 120.4 4.41236 121.4 2.53012C120 2.41248 118.3 2.41248 116.9 2.53012C115.4 4.41236 113.9 6.52988 112.4 8.52976C111.9 9.2356 111.5 9.94144 110.9 10.412C111.4 7.82392 112 5.35348 112.6 2.64776C111 2.53012 109.2 2.41248 107.8 2.7654C107.3 4.64764 106.8 6.76516 106.3 8.88268C105.9 10.8826 105.3 12.8824 104.8 14.8823C104.3 16.8822 103.9 18.8821 103.4 20.882C102.9 22.8818 102.4 24.8817 102.1 26.8816C104 26.8816 105.5 26.8816 107.2 26.8816C108.1 23.3524 108.9 19.5879 109.9 16.294C110.5 19.8232 111.1 23.3524 111.7 26.8816C113.4 26.8816 114.9 26.9992 117.1 26.764C116.2 22.0584 115.3 17.8233 114.5 13.2354Z" fill="white"/>
<path d="M141 8.64716C141.2 7.70604 141.5 6.64727 141.5 5.70614C141.5 4.05916 140.8 2.76511 139.7 2.52982C139 2.41218 138 2.52982 137.1 2.52982C134.4 2.52982 131.9 2.52982 129.2 2.64747C127.4 10.6471 125.5 18.6467 123.8 26.6463C125 26.7639 127.2 26.7639 128.4 26.6463C129 24.1758 129.5 21.7053 130.2 19.3525C133.5 19.5878 136.3 19.5878 138.2 17.5879C138.9 16.7644 139.2 15.588 139.6 14.4116C140.3 12.4117 140.6 10.7647 141 8.64716ZM136.1 9.00009C135.8 10.7647 135.2 13.1175 134.6 14.4116C133.8 15.1174 132.3 15.4704 131.3 14.8821C131.9 12.1764 132.5 9.58829 133.2 6.88255C134.3 6.52962 136.1 6.41198 136.3 7.70604C136.3 7.94132 136.2 8.41188 136.1 9.00009Z" fill="white"/>
<path d="M147.5 6.8834C146.9 7.35397 146.6 9.00096 146.3 10.1774C145.7 12.7655 145.2 15.0007 144.6 17.4712C144.2 19.0005 143.8 20.4122 143.7 22.0592C143.8 22.1769 143.9 22.4121 143.9 22.6474C144.7 23.3533 146.4 23.2356 147 22.2945C147.1 22.1769 147.4 21.471 147.5 21.1181C147.8 20.0593 148 18.8829 148.2 17.8241C148.9 15.0007 149.5 12.1773 150.1 9.35389C150.2 8.64803 150.5 8.05982 150.4 7.58925C150.3 6.05991 148.3 6.17755 147.5 6.8834Z" fill="#BDBBBB"/>
<path d="M81.6 7.35366C81.4 7.70659 81.3 8.53008 81.2 9.11829C80.5 12.177 79.9 15.0004 79.1 18.1767C78.8 19.4708 77.9 21.5884 78.6 22.6471C79.4 23.1177 80.8 22.8824 81.3 22.2942C82.1 20.059 82.5 17.5885 83.1 15.0004C83.5 13.2358 84.1 11.2358 84.4 9.47122C84.5 8.88301 84.8 8.05951 84.7 7.4713C84.5 5.82431 82 6.29488 81.6 7.35366Z" fill="#BDBBBB"/>
<path d="M133.2 6.76579C132.6 9.35394 131.9 12.0597 131.3 14.7655C132.3 15.3537 133.8 15.0008 134.6 14.295C135.2 13.1185 135.8 10.648 136.1 8.88337C136.2 8.4128 136.2 7.82458 136.2 7.58929C136.1 6.41286 134.2 6.53051 133.2 6.76579Z" fill="#BDBBBB"/>
<path d="M96.9 6.76465C96.2 8.52934 95.9 10.647 95.4 12.5293C96.4 12.6469 98.4 12.8822 98.9 11.9411C99.1 10.9999 99.7 9.58815 99.9 8.41169C100.1 6.05877 98.2 6.99994 96.9 6.76465Z" fill="#BDBBBB"/>
<path d="M115.5 13.4711C117.9 9.8242 120.5 5.82438 122.9 2.29513C123 2.17749 123.3 1.82456 123.2 1.58928C121 1.58928 118.2 1.58928 116.2 1.58928C115.8 2.05985 115.3 2.53041 114.8 2.88334C114.3 3.35391 113.8 3.82447 113.3 4.05976C113.4 3.23626 113.6 2.53041 113.7 1.58928C111.4 1.58928 109.1 1.58928 106.7 1.58928C106.3 1.94221 106 2.53041 105.4 2.7657C104.9 2.41277 104.4 1.82456 103.9 1.70692C103 1.47164 102 1.58928 101.1 1.58928C98.1 1.58928 94.7 1.58928 91.7 1.58928C91.2 2.05985 90.7 2.53041 90.2 3.00098C88.1 0.412862 82.8 0.295221 79.7 1.70692C79.5 1.70692 79.6 1.354 79.3 1.47164C76.9 1.47164 74.7 1.47164 72.4 1.47164C71.3 2.29513 70.5 3.47155 69.3 4.1774C69.2 3.47155 69.3 2.17749 69.1 1.47164C66.8 1.47164 64.4 1.47164 62.1 1.47164C61.6 1.82456 61.3 2.41277 60.7 2.64806C60.7 2.17749 60.9 1.94221 61 1.47164C58.9 1.47164 56.8 1.47164 54.7 1.47164C53.8 2.05985 53.2 3.00098 52.2 3.47155C52.1 2.88334 52.2 2.05985 52 1.47164C51 1.47164 49.9 1.47164 48.9 1.47164C47.9 1.47164 46.6 1.23635 45.8 1.47164C45.1 1.70692 44.6 2.88334 43.8 3.00098C43.7 2.53041 43.7 1.82456 43.6 1.354C37.5 1.354 28.7 1.11871 22.2 1.47164C21.6 1.47164 20.9 1.23635 20.3 1.354C19.6 1.47164 18.8 3.00098 18.1 3.00098C18 2.41277 17.9 1.82456 17.8 1.354C15.6 1.354 13.4 1.354 11.2 1.354C9.7 2.53041 8.5 3.94211 7.1 5.35382C6.5 5.94202 5.9 6.17731 5.7 6.76552C5.4 7.35373 5.4 8.29486 5.2 9.00071C4.8 10.7653 4.4 12.2947 4.1 14.0593C2.8 20.412 1.1 27.1175 0 33.1173C2 33.1173 3.9 33.1173 5.9 33.1173C6.9 32.2938 7.8 31.235 9 30.5292C9.2 31.3526 9.2 32.2938 9.4 33.1173C10.8 33.1173 12.4 33.1173 13.7 33.1173C14.1 33.1173 14.7 33.2349 15.1 33.1173C15.6 32.9996 15.8 32.2938 16.2 32.1761C16.5 32.4114 16.6 32.7643 16.8 33.1173C19.9 32.882 23.5 33.2349 25.9 33.1173C26.7 33.1173 27.7 33.2349 28.3 32.9996C28.7 32.882 29.1 32.2938 29.5 31.9409C29.9 31.5879 30.3 31.1174 30.8 30.9997C30.9 31.7056 30.6 32.4114 30.6 32.882C32.2 32.9996 33.9 32.7643 35.3 32.882C35.6 32.882 35.8 32.9996 36.1 32.9996C36.8 32.882 37.5 31.9409 38.1 31.5879C38.7 31.1174 39.2 30.4115 39.9 30.2939C39.8 31.235 39.5 31.9409 39.4 32.882C40.2 32.9996 41.1 32.9996 42.2 32.9996C43.2 32.9996 44.4 33.2349 45.2 32.9996C45.7 32.882 46.2 32.0585 46.7 31.7056C48.2 30.2939 49.9 28.9998 51.2 27.7058C53.1 22.7648 55.2 17.5886 57.2 12.7652C57.5 12.0594 57.6 11.2359 58.2 10.6477C58.6 13.4711 58.9 16.2945 59.1 19.0003C59.2 19.9414 59.4 20.8825 59.4 21.706C59.3 22.5295 59 23.5883 58.8 24.4118C58.1 27.2352 57.5 30.0586 56.9 32.7643C58.9 32.882 61.1 32.7643 63.4 32.7643C64.9 31.5879 66.1 30.1762 67.7 28.9998C68.8 31.235 70.2 32.7643 72.9 32.9996C75.5 33.2349 77.5 32.4114 79.2 31.4703C80.1 30.9997 80.9 30.2939 81.7 29.9409C81.6 30.9997 81.4 31.8232 81.3 32.7643C83.3 32.7643 85.3 32.7643 87.4 32.7643C88.2 32.1761 88.8 31.4703 89.7 30.9997C89.8 31.7056 89.5 32.0585 89.4 32.6467C92.3 32.7643 95.7 32.7643 99 32.7643C100.1 32.7643 101.4 32.9996 102.4 32.7643C102.8 32.6467 103.4 31.9409 103.8 31.5879C104.3 31.1174 104.7 30.5292 105.2 30.4115C105.5 31.1174 105.7 31.9409 105.9 32.6467C108.3 32.6467 110.7 32.6467 113 32.6467C114.9 30.8821 116.7 28.9998 118.6 27.3528C117.3 23.0001 116.4 18.2944 115.5 13.4711ZM15.2 26.5293C14.6 21.9413 14.4 17.4709 13.8 13.0005C12.6 17.3533 11.7 22.1766 10.4 26.5293C9.1 26.5293 7.7 26.647 6.5 26.4117C8.1 18.2944 10 10.5301 11.7 2.53041C11.7 2.41277 11.8 2.41277 11.9 2.29513C13.6 2.29513 15.5 2.17749 17.2 2.41277C17.6 6.29495 17.9 10.1771 18.4 13.9417C19.5 10.1771 20.3 6.05967 21.4 2.29513C22.7 2.41277 24.4 2.17749 25.4 2.41277C23.6 10.5301 21.8 18.4121 19.8 26.4117C18.3 26.5293 16.7 26.5293 15.2 26.5293ZM50.1 26.647C48.5 26.647 47.2 26.7646 45.7 26.5293C46 21.9413 46.4 17.5886 46.7 13.0005C46.1 14.0593 45.7 15.2357 45.3 16.4121C44 19.8238 42.7 23.353 41.3 26.7646C40 26.647 38.6 26.647 36.8 26.647C36.9 19.9414 37.5 13.2358 37.7 6.76552C35.9 6.64788 33.7 6.76552 31.6 6.64788C31 8.29486 30.6 10.4124 30.1 12.177C31.7 12.2947 33.8 12.177 35.6 12.2947C35.4 13.5887 34.9 15.0004 34.7 16.4121C33.2 16.4121 31.3 16.5298 29.2 16.5298C28.6 18.4121 28.2 20.6472 27.7 22.6472C29.7 22.6472 31.8 22.5295 33.7 22.7648C33.3 24.1765 32.9 25.4706 32.5 26.8823C29 26.8823 25.2 26.8823 22 26.7646C23.7 18.6473 25.5 10.6477 27.3 2.64806C32.3 2.53041 37.6 2.53041 42.9 2.64806C42.7 6.53023 42.4 10.6477 42 14.4122C42.4 14.0593 42.5 13.4711 42.7 13.0005C44 9.58892 45.4 6.05967 46.8 2.64806C48.2 2.64806 49.8 2.64806 51.3 2.7657C51.1 6.88316 50.7 10.7653 50.5 14.7652C52.3 10.883 53.8 6.76552 55.5 2.7657C56.8 2.53041 58.3 2.41277 59.8 2.53041C56.6 10.6477 53.4 18.6473 50.1 26.647ZM75.4 1.70692C75.5 1.70692 75.6 1.70692 75.7 1.70692C75.7 1.82456 75.7 1.94221 75.7 2.05985C75.6 2.05985 75.6 2.17749 75.5 2.17749C75.4 2.05985 75.4 1.82456 75.4 1.70692ZM71 15.3534C70.7 15.9416 70.2 16.6474 70 17.118C69.7 17.8238 69.7 18.765 69.5 19.5885C69 21.8237 68.4 24.1765 67.7 26.647C66.1 26.5293 64.5 26.7646 63.2 26.5293C63.6 23.353 64.7 20.1767 65.2 17.0004C65.3 16.2945 65.1 15.5886 65 14.7652C64.5 10.6477 64 6.64788 63.6 2.41277C65.3 2.29513 66.5 2.29513 68.4 2.41277C68.6 5.23617 68.8 8.17722 68.9 11.0006C70.5 8.4125 71.9 5.11853 73.5 2.41277C74.8 2.41277 76.6 2.29513 78.1 2.53041C75.9 6.88316 73.3 11.0006 71 15.3534ZM86.2 22.6472C85.7 23.9412 84.5 25.3529 83.5 26.1764C81.7 27.5881 77.8 28.4116 75.3 27.3528C74.6 27.1175 73.2 26.1764 73 25.1176C72.5 23.0001 73.5 20.6472 73.9 18.6473C74.5 15.471 75.4 11.9418 76.1 8.76543C76.4 7.35373 76.7 6.41259 77.3 5.35382C78.5 3.35391 80.4 1.94221 83 1.70692C86.2 1.354 89.3 1.58928 89.9 4.76561C90 5.11853 90 5.82438 89.9 6.41259C89.8 7.70665 89.4 9.23599 89 10.6477C88.4 13.2358 87.8 16.0592 87.1 18.765C86.8 20.059 86.6 21.5884 86.2 22.6472ZM100.5 26.647C98.8 26.647 97.5 26.7646 95.6 26.5293C95.8 24.6471 96.5 21.9413 96.9 19.7061C97 19.0003 97.4 17.9415 97.3 17.4709C97 16.4121 95.3 16.8827 94.3 16.7651C93.3 19.8238 92.7 23.353 91.9 26.5293C90.3 26.4117 88.7 26.5293 87.2 26.4117C87.9 22.2942 89 18.2944 89.9 14.2946C90.8 10.2948 91.6 6.29495 92.6 2.29513C95.2 2.41277 97.7 2.17749 100.2 2.17749C101.6 2.17749 103.8 2.05985 104.6 2.7657C106.2 4.05976 105.2 6.76552 104.7 8.88307C104.4 10.0595 104.2 11.2359 104 11.9418C103.5 13.2358 102.3 13.7064 101.2 14.4122C102 14.8828 102.9 15.1181 102.8 16.6474C102.8 17.3533 102.5 18.2944 102.3 19.1179C101.7 21.5884 101 24.6471 100.5 26.647ZM111.6 26.647C111 23.1177 110.4 19.5885 109.8 16.0592C108.7 19.4708 108 23.1177 107.1 26.647C105.5 26.647 103.9 26.647 102 26.647C102.3 24.6471 102.8 22.6472 103.3 20.6472C103.8 18.6473 104.2 16.6474 104.7 14.6475C105.2 12.6476 105.8 10.6477 106.2 8.64779C106.6 6.64788 107.2 4.53032 107.7 2.53041C109.2 2.29513 111 2.41277 112.5 2.41277C111.9 5.11853 111.3 7.58901 110.8 10.1771C111.4 9.70656 111.8 9.00071 112.3 8.29486C113.8 6.41259 115.3 4.29504 116.8 2.29513C118.2 2.17749 119.9 2.17749 121.3 2.29513C120.3 4.1774 119.1 5.94203 117.9 7.70665C116.7 9.47128 115.6 11.2359 114.4 13.0005C115.2 17.5886 116 21.8237 116.8 26.2941C114.8 26.7646 113.2 26.647 111.6 26.647Z" fill="#BDBBBB"/>
<path d="M75.7 2.05988C75.7 1.94226 75.7 1.82465 75.7 1.70703C75.6 1.70703 75.5 1.70703 75.4 1.70703C75.3 1.82465 75.3 2.05988 75.4 2.17749C75.5 2.17749 75.6 2.05988 75.7 2.05988Z" fill="#BDBBBB"/>
</svg>
