<svg width="190" height="27" viewBox="0 0 190 27" fill="none" xmlns="http://www.w3.org/2000/svg">
<path d="M190 26.5693V22.8048H178.7V14.6874H185V10.9228H178.7V4.5701H189.5V0.805534H175.4V26.5693H190ZM171 26.5693V22.8048H160V0.805534H156.7V26.5693H171ZM149.2 8.80525C149.2 11.6287 147.9 13.2757 145.4 13.2757H139.5V4.33482H145.4C147.7 4.45246 149.2 5.98182 149.2 8.80525ZM152.5 8.80525C152.5 3.51132 149.5 0.687893 145.4 0.687893H136.2V26.4517H139.4V16.805H145.1C149.5 16.9226 152.5 14.2168 152.5 8.80525ZM130.6 26.5693V0.805534H127.1L122.3 14.5697C121.8 16.0991 121.1 17.9814 120.8 19.0402C120.5 17.9814 119.8 16.0991 119.3 14.5697L114.4 0.805534H111V26.5693H114.1V12.9228C114.1 11.3934 114.1 9.15818 114 8.33468C114.3 9.04054 114.9 10.9228 115.4 12.3345L120.7 26.9223L126 12.3345C126.5 10.8052 127.2 9.04054 127.4 8.33468C127.4 9.04054 127.3 11.2758 127.3 12.9228V26.5693H130.6ZM105.1 0.805534H101.8V26.5693H105.1V0.805534ZM96.7 19.1578C96.7 14.5698 94 12.9228 89.7 11.3934C85.9 10.0993 84.9 9.15818 84.9 7.39353C84.9 5.62889 86 4.21718 88.6 4.21718C90.8 4.21718 92.3 5.04068 93.7 6.68768L96 3.86425C94.1 1.62903 91.8 0.334961 88.8 0.334961C84.8 0.334961 81.6 3.04075 81.6 7.51118C81.6 12.0992 83.8 13.511 88.5 15.158C92.2 16.452 93.5 17.3932 93.5 19.3931C93.5 21.8636 92 23.1577 89 23.1577C86.9 23.1577 84.8 21.9813 83.3 20.099L80.9 22.8048C82.7 25.3929 85.5 26.9223 88.7 26.9223C94.2 27.0399 96.7 23.8635 96.7 19.1578ZM77.6 26.5693V22.8048H66.6V0.805534H63.3V26.5693H77.6ZM52.7 17.0403H45.9L47.7 11.1581C48.3 9.27583 49 6.33475 49.3 5.15832C49.6 6.2171 50.4 9.27582 51 11.0405L52.7 17.0403ZM59 26.5693L51 0.805534H47.5L39.6 26.5693H43L44.8 20.4519H53.6L55.4 26.5693H59ZM36.4 26.5693V22.8048H25V14.6874H31.3V10.9228H25V4.5701H35.8V0.805534H21.8V26.5693H36.4ZM13.4 8.56996C13.4 11.3934 11.9 12.6875 9.7 12.6875H3.2V4.33482H9.6C11.8 4.45246 13.4 5.86418 13.4 8.56996ZM16.7 8.45232C16.7 3.15839 13.5 0.687893 9.6 0.687893H0V26.4517H3.2V16.2168H8.2L12.6 26.4517H16.4L11.9 15.8638C14.8 15.158 16.7 12.5698 16.7 8.45232Z" fill="#BDBBBB"/>
</svg>
