<svg width="79" height="79" viewBox="0 0 79 79" fill="none" xmlns="http://www.w3.org/2000/svg">
<path d="M20.4292 70.2666C21.5402 70.8683 22.6357 70.9301 23.8546 70.9301C25.0581 70.9301 26.2616 70.9301 27.4652 70.9301C31.662 70.9301 35.8589 70.9301 40.0558 70.9301C49.221 70.9301 58.3862 70.9301 67.5515 70.9301C69.8659 70.9301 72.9056 71.3929 74.8034 69.7883C77.0407 67.8904 76.5161 64.6039 76.5161 61.9808C76.5161 52.7076 76.5161 43.4344 76.5161 34.1611C76.5161 28.2207 76.5161 22.2803 76.5161 16.3398C76.5161 14.334 76.8556 11.9578 75.6675 10.2142C74.6183 8.67127 72.9364 8.10037 71.1466 8.10037C68.3693 8.10037 65.5919 8.10037 62.83 8.10037C53.171 8.10037 43.512 8.10037 33.853 8.10037C30.6128 8.10037 27.3726 8.10037 24.1323 8.10037C23.3763 8.10037 22.6511 8.08494 21.895 8.19295C20.0589 8.45525 18.6085 10.0599 18.1456 11.7881C17.945 12.5287 18.0068 13.3465 18.0068 14.1025C18.0068 21.3699 18.0068 28.6219 18.0068 35.8892C18.0068 35.9047 18.0068 35.9201 18.0068 35.9201C18.0068 37.4168 20.3212 37.4168 20.3212 35.9201C20.3212 28.807 20.3212 21.6785 20.3212 14.5654C20.3212 13.9482 20.3058 13.3465 20.3212 12.7293C20.3521 11.4332 21.6019 10.4148 22.8517 10.4148C23.438 10.4148 24.0089 10.4148 24.5952 10.4148C28.0361 10.4148 31.4769 10.4148 34.9177 10.4148C44.5304 10.4148 54.1585 10.4148 63.7712 10.4148C66.3017 10.4148 68.8476 10.4148 71.378 10.4148C72.9673 10.4148 74.1708 11.4486 74.1708 13.0996C74.1708 15.1826 74.1708 17.281 74.1708 19.364C74.1708 25.2582 74.1708 31.1369 74.1708 37.031C74.1708 45.9185 74.1708 54.806 74.1708 63.6935C74.1708 64.465 74.1708 65.2519 74.1708 66.0234C74.1708 67.5818 72.9673 68.631 71.4706 68.631C69.0636 68.631 66.6411 68.631 64.2341 68.631C54.6368 68.631 45.055 68.631 35.4577 68.631C32.3718 68.631 29.2859 68.631 26.1999 68.631C25.3359 68.631 24.4718 68.631 23.6077 68.631C22.8825 68.631 22.2499 68.6465 21.5864 68.2916C20.2904 67.551 19.1177 69.5568 20.4292 70.2666Z" fill="#B68C13"/>
<path d="M64.0488 45.9654C64.0025 52.7544 59.8519 59.0189 53.5103 61.5493C47.0607 64.1261 39.6236 62.3671 34.9021 57.3216C30.2115 52.307 29.1777 44.623 32.2173 38.4974C35.2878 32.2947 41.9226 28.715 48.758 29.2396C57.3677 29.9031 64.0025 37.4636 64.0488 45.9654C64.0642 47.462 66.3787 47.462 66.3632 45.9654C66.3169 38.8831 62.3515 32.3101 56.0716 29.0236C49.7455 25.7062 41.8146 26.3234 36.0439 30.5203C30.196 34.7788 27.357 41.9382 28.4062 49.0513C29.44 55.9947 34.5935 61.7962 41.1511 64.0798C46.9218 66.0857 53.5412 65.0056 58.4632 61.4259C63.4007 57.8308 66.3169 52.0601 66.3478 45.9654C66.3787 44.4687 64.0642 44.4687 64.0488 45.9654Z" fill="#B68C13"/>
<path d="M59.2039 45.9641C59.173 49.3587 57.7689 52.5063 55.2693 54.8053C52.7697 57.1198 49.3443 58.1227 45.996 57.8141C39.0527 57.1969 34.2232 50.2227 35.5964 43.5262C36.8308 37.5087 42.5398 33.5587 48.5574 34.0987C54.575 34.6387 59.1421 40.0237 59.2039 45.9641C59.2193 47.4608 61.5337 47.4608 61.5183 45.9641C61.4566 38.6042 55.8402 32.5557 48.5574 31.7842C41.3671 31.0282 34.6089 36.2897 33.282 43.3257C31.9242 50.5313 36.4142 57.6444 43.4193 59.6811C50.5015 61.7333 57.9232 57.7215 60.5925 50.9942C61.2252 49.4049 61.4875 47.6768 61.5029 45.9796C61.5183 44.4674 59.2039 44.4674 59.2039 45.9641Z" fill="#B68C13"/>
<path d="M19.1793 23.3135C24.8574 23.3135 30.5355 23.3135 36.2137 23.3135C45.9344 23.3135 55.6397 23.3135 65.3604 23.3135C68.6932 23.3135 72.026 23.3135 75.3434 23.3135C76.84 23.3135 76.84 20.999 75.3434 20.999C69.6652 20.999 63.9871 20.999 58.309 20.999C48.5883 20.999 38.883 20.999 29.1623 20.999C25.8295 20.999 22.4967 20.999 19.1793 20.999C17.698 20.999 17.698 23.3135 19.1793 23.3135Z" fill="#B68C13"/>
<path d="M29.1314 15.6919C29.0697 17.0189 27.1564 17.0189 27.0947 15.6919C27.0176 14.365 29.0697 14.3804 29.1314 15.6919C29.2086 17.1732 31.523 17.1886 31.4459 15.6919C31.3533 13.8095 29.9801 12.4517 28.1131 12.3591C26.2461 12.2665 24.8574 13.9484 24.7803 15.6919C24.6877 17.5589 26.3695 18.9476 28.1131 19.0248C29.9801 19.1173 31.3687 17.4355 31.4459 15.6919C31.5076 14.1953 29.1932 14.2107 29.1314 15.6919Z" fill="#B68C13"/>
<path d="M37.6178 15.6919C37.556 17.0189 35.6428 17.0189 35.581 15.6919C35.5193 14.365 37.556 14.3804 37.6178 15.6919C37.6949 17.1732 40.0094 17.1886 39.9322 15.6919C39.8396 13.8095 38.4664 12.4517 36.5994 12.3591C34.7324 12.2665 33.3437 13.9484 33.2666 15.6919C33.174 17.5589 34.8558 18.9476 36.5994 19.0248C38.4664 19.1173 39.8551 17.4355 39.9322 15.6919C40.0094 14.1953 37.6949 14.2107 37.6178 15.6919Z" fill="#B68C13"/>
<path d="M46.1195 15.6919C46.0577 17.0189 44.1445 17.0189 44.0828 15.6919C44.0056 14.365 46.0577 14.3804 46.1195 15.6919C46.1966 17.1732 48.5111 17.1886 48.4339 15.6919C48.3413 13.8095 46.9681 12.4517 45.1011 12.3591C43.2341 12.2665 41.8455 13.9484 41.7683 15.6919C41.6757 17.5589 43.3576 18.9476 45.1011 19.0248C46.9681 19.1173 48.3568 17.4355 48.4339 15.6919C48.4956 14.1953 46.1812 14.2107 46.1195 15.6919Z" fill="#B68C13"/>
<path d="M25.0426 42.6934C17.9449 42.6934 10.8473 42.6934 3.74962 42.6934C3.71876 42.6934 3.67247 42.6934 3.64161 42.6934C3.05528 42.6934 2.4381 43.218 2.48439 43.8506C3.08614 51.1025 3.70333 58.3391 4.30509 65.591C4.53653 68.4301 6.34181 70.5285 9.21173 70.8988C9.82892 70.976 10.4924 70.9143 11.1096 70.9143C12.2822 70.9143 13.4703 70.9143 14.643 70.9143C16.4945 70.9143 18.5621 71.1611 20.3828 70.7445C22.2035 70.3279 23.5768 68.8158 24.1477 67.0877C24.3174 66.5477 24.3483 65.9768 24.3945 65.4059C24.9963 58.2156 25.5981 51.0408 26.1998 43.8506C26.3233 42.3693 24.0088 42.3693 23.8854 43.8506C23.2836 51.1025 22.6664 58.3391 22.0647 65.591C21.9104 67.4426 20.568 68.5998 18.7318 68.5998C16.5871 68.5998 14.427 68.5998 12.2822 68.5998C10.3227 68.5998 8.10079 68.9701 6.97443 66.9488C6.44982 66.023 6.55782 64.5727 6.46525 63.5543C5.90978 56.9812 5.35431 50.4082 4.81427 43.8352C4.42853 44.2209 4.04278 44.6066 3.65704 44.9924C10.7547 44.9924 17.8524 44.9924 24.95 44.9924C24.9809 44.9924 25.0272 44.9924 25.058 44.9924C26.5393 45.0078 26.5393 42.6934 25.0426 42.6934Z" fill="#B68C13"/>
<path d="M22.003 42.694C18.2227 42.694 14.427 42.694 10.6467 42.694C9.31979 42.694 7.99284 42.694 6.66588 42.694C6.14128 42.694 6.24928 42.0151 6.24928 41.6757C6.24928 41.3362 6.14128 40.6573 6.66588 40.6573C7.06706 40.6573 7.48366 40.6573 7.88483 40.6573C11.2639 40.6573 14.643 40.6573 18.0221 40.6573C19.2411 40.6573 20.46 40.6573 21.679 40.6573C21.9721 40.6573 22.2807 40.611 22.4042 40.9659C22.4967 41.2591 22.4196 41.6757 22.4196 41.9843C22.4196 42.2929 22.435 42.6632 22.003 42.694C20.5217 42.7866 20.5063 45.1011 22.003 45.0085C23.0214 44.9468 23.7928 44.4993 24.3637 43.6507C24.7803 43.0335 24.734 42.2312 24.734 41.5214C24.734 39.8858 23.8237 38.3429 22.003 38.3429C20.5835 38.3429 19.1794 38.3429 17.7598 38.3429C15.3065 38.3429 12.8378 38.3429 10.3844 38.3429C9.47409 38.3429 8.56374 38.3429 7.65338 38.3429C7.15963 38.3429 6.63503 38.2966 6.15671 38.4046C2.90104 39.0681 3.20964 45.0239 6.69674 45.0239C8.10085 45.0239 9.52038 45.0239 10.9245 45.0239C14.6122 45.0239 18.3153 45.0239 22.003 45.0239C23.4997 45.0085 23.4997 42.694 22.003 42.694Z" fill="#B68C13"/>
<path d="M20.4137 38.342C16.6334 38.342 12.8686 38.342 9.0883 38.342C8.70256 38.342 7.88478 38.4963 7.83849 37.9254C7.79221 37.1693 8.06994 37.0459 8.71799 37.0459C10.8164 37.0459 12.9149 37.0459 15.0133 37.0459C16.5254 37.0459 18.053 37.0459 19.5651 37.0459C19.8428 37.0459 20.1205 37.0459 20.3983 37.0459C21.0155 37.0459 21.0155 38.2957 20.4137 38.342C18.9324 38.4346 18.917 40.749 20.4137 40.6565C22.3578 40.533 23.4688 38.8049 23.083 36.9379C22.8053 35.5492 21.5864 34.7314 20.2131 34.7314C18.2844 34.7314 16.3403 34.7314 14.4115 34.7314C12.4365 34.7314 10.477 34.7314 8.50197 34.7314C7.14416 34.7314 6.07951 35.4258 5.63205 36.7373C5.04572 38.4346 6.20295 40.5176 8.05451 40.641C10.1067 40.7799 12.2051 40.6565 14.2727 40.6565C16.3248 40.6565 18.377 40.6565 20.4291 40.6565C21.9104 40.6565 21.9104 38.342 20.4137 38.342Z" fill="#B68C13"/>
</svg>
