<svg width="76" height="60" viewBox="0 0 76 60" fill="none" xmlns="http://www.w3.org/2000/svg">
<path d="M67.8493 16.412C67.8074 16.412 67.7237 16.3701 67.6818 16.3701C67.5562 16.3701 67.4306 16.412 67.305 16.4957C65.5048 17.5005 63.6628 18.5471 61.8626 19.5937C61.6951 19.6775 61.6533 19.7612 61.6114 19.7612C61.3602 20.0124 61.4021 20.5566 61.6533 20.8915C61.8626 21.1846 62.2812 21.4358 62.6162 21.2265C63.2441 20.8915 63.914 20.5148 64.5419 20.138C64.835 19.9705 65.128 19.803 65.4211 19.6356L66.2165 19.2169C66.8445 18.8402 67.5144 18.5052 68.1423 18.1284C68.561 17.8773 68.6866 17.3749 68.3935 16.8725C68.2261 16.6632 68.0586 16.4957 67.8493 16.412Z" fill="#B68C13"/>
<path d="M20.9604 25.4549C19.2858 24.5339 17.6112 23.6547 15.9784 22.7337L15.1411 22.2732C14.3457 21.8545 13.634 21.5615 12.8804 21.5615C12.2106 21.5615 11.4989 21.7708 10.7034 22.315C7.98222 24.0315 4.38183 23.2361 2.53976 20.4311C0.739568 17.7099 1.24195 14.1095 3.67012 12.1837C6.34948 10.0905 9.82428 10.4254 12.0013 12.9373C12.8804 13.942 13.5084 15.5329 13.634 16.9145C13.8015 18.7984 14.5969 19.552 15.8947 20.2637L20.7092 22.8174C20.7929 22.8593 20.8766 22.9012 20.9604 22.943V21.3103L16.5645 19.0077C15.5598 18.4635 15.183 18.0448 15.0574 16.8307C14.8899 15.1143 14.1364 13.2722 13.0898 12.0162C10.4523 8.91824 5.9727 8.49959 2.74909 11.0534C-0.265193 13.4397 -0.893168 17.9192 1.32568 21.2266C3.62825 24.7014 8.10781 25.7061 11.4989 23.5291C12.6292 22.8174 13.2572 22.9012 14.4713 23.571L15.3086 24.0315C17.1925 25.0363 19.0765 26.0829 21.0022 27.0877V25.4549H20.9604Z" fill="#B68C13"/>
<path d="M74.2966 53.0848C74.2129 52.9592 74.1291 52.8755 74.0454 52.7499C73.8361 52.415 73.543 52.0382 73.1662 51.787C71.4916 50.6985 69.524 49.1914 67.3889 47.5586C64.5002 45.3398 61.5278 43.0372 59.0996 41.6975C57.3831 40.7765 55.6248 39.8136 53.9083 38.8926V40.5672C55.4155 41.3626 56.9226 42.1999 58.4297 42.9954C60.7742 44.2513 63.7047 46.5539 66.5097 48.7309C68.603 50.3636 70.5706 51.8707 72.2452 52.9592C71.9103 52.8336 71.6172 52.708 71.3242 52.5824C65.798 49.8193 59.8113 46.4701 53.8665 43.1628V44.8374C59.5601 48.0192 65.3375 51.2009 70.6543 53.8803C71.1986 54.1314 71.7428 54.3408 72.2871 54.5501C72.5383 54.6338 72.7476 54.7176 72.9988 54.8013L73.5012 55.0106L74.5896 53.5872L74.2966 53.0848Z" fill="#B68C13"/>
<path d="M54.5782 44.5863V30.8127C54.5782 25.3702 54.5782 19.8859 54.5782 14.4434C54.5782 12.0153 53.5734 10.0895 51.6476 8.70793C50.8522 8.12182 49.9312 7.7869 48.6752 7.57757L48.2566 7.49384V0H26.6123V7.45198L26.1099 7.57757C26.0262 7.61944 25.9425 7.61944 25.8588 7.61944C22.5933 8.16368 20.207 11.1361 20.2907 14.4853C20.3326 16.2018 20.3326 17.9601 20.3326 19.6766C20.3326 20.4301 20.3326 21.2256 20.3326 21.9791V28.6357C20.3326 34.0363 20.3326 39.4369 20.3326 44.8374C20.3326 47.768 22.049 50.238 24.7703 51.2428C25.0633 51.3684 25.3982 51.4521 25.775 51.5359C25.9425 51.5777 26.1099 51.6196 26.3193 51.6615L26.6961 51.7452V59.1134H48.3403V51.7452L48.6752 51.5777C48.7171 51.5777 48.7589 51.5359 48.8427 51.5359C52.4012 50.866 54.5782 48.2704 54.5782 44.5863ZM53.0292 44.963L44.7818 45.0049L53.0292 40.2323V44.963ZM53.0292 38.474C53.0292 38.7252 52.8617 38.9345 52.5686 39.1019C49.2613 40.9859 42.6885 44.7956 42.6885 44.7956C42.6885 44.7956 42.3954 44.963 42.1861 44.963C42.0187 45.0049 36.5762 44.963 36.5762 44.963L53.071 35.5016V36.8412C53.071 37.4273 53.071 37.9297 53.0292 38.474ZM53.0292 33.7851C53.0292 34.1619 52.6105 34.4131 52.4431 34.4968C50.8522 35.4178 40.1766 41.5301 36.4506 43.749C36.5762 43.749 34.0224 45.0049 34.0643 44.963C33.8131 44.963 28.6219 44.963 28.6219 44.963L53.071 30.8127V32.2361C53.071 32.7803 53.071 33.2827 53.0292 33.7851ZM28.2032 1.50714H46.7494V7.49384H28.2032V1.50714ZM22.5096 11.7222C22.5514 11.6385 22.5933 11.5966 22.6352 11.5129C22.7189 11.3454 22.8026 11.2198 22.9282 11.0524C23.933 9.75455 25.2727 9.08471 26.8217 9.00098C27.1147 9.00098 27.4496 9.00098 27.7846 9.00098H28.0776H34.6086C38.9625 9.00098 43.3165 9.00098 47.6704 9.00098C49.68 9.00098 51.229 9.83828 52.3175 11.5129C52.3593 11.5547 52.3593 11.5966 52.4012 11.6803L52.8198 12.5176H22.049L22.5096 11.7222ZM21.8816 14.0667H53.0292V17.5414H21.8816V14.0667ZM21.8816 19.0486H53.0292V22.5234H21.8816V19.0486ZM53.0292 24.8678L21.8816 42.7023V41.2789C21.8816 40.7765 21.8816 40.316 21.8816 39.8137C21.9234 39.395 22.3002 39.1438 22.4677 39.0601C24.5609 37.846 43.0653 27.1704 48.0891 24.3236C48.3821 24.1561 48.7589 24.0724 49.0939 24.0305C49.8893 24.0305 50.6429 24.0305 51.4383 24.0305H53.071V24.8678H53.0292ZM29.8778 24.0724L21.8816 28.6775V24.0724H29.8778ZM21.8816 30.5196C21.8816 30.1428 22.2165 29.8498 22.4677 29.7242C24.3935 28.5938 26.3193 27.5053 28.2869 26.375L30.0871 25.3283C30.6732 24.9934 31.5524 24.491 31.8873 24.2817C32.2641 24.0724 32.7246 24.0305 32.7246 24.0305C33.6038 24.0305 37.7066 24.0305 37.7066 24.0305L21.8397 33.3664V32.4873C21.8397 32.2779 21.8397 32.1105 21.8397 31.943C21.8816 31.4825 21.8816 31.022 21.8816 30.5196ZM21.8816 35.2504C21.9234 34.9154 22.2165 34.5805 22.4677 34.4131C26.5705 32.0268 37.5391 25.7051 37.5391 25.7051C38.3345 25.2446 39.1718 24.7422 39.9673 24.3236C40.2185 24.1561 40.5953 24.0724 40.8883 24.0724C42.1443 24.0305 45.7865 24.0724 45.7865 24.0724L21.7979 38.0972V37.218C21.7979 37.0087 21.7979 36.8412 21.7979 36.6319C21.8816 36.1714 21.8816 35.7109 21.8816 35.2504ZM21.8816 44.1676L53.0292 26.1656V27.5891C53.0292 28.0914 53.0292 28.5938 53.0292 29.0543C52.9873 29.473 52.5686 29.766 52.4431 29.8079C48.9683 31.8174 30.6732 42.3674 26.5705 44.7119C26.2774 44.8793 25.9425 44.963 25.6076 44.963C25.1052 44.963 21.9234 44.963 21.9234 44.963V44.1676H21.8816ZM46.7494 57.6482H28.2032V51.7033H46.7494V57.6482ZM52.3593 47.5587C51.3964 49.1077 49.973 49.9869 48.1728 50.1124C48.0054 50.1124 47.8379 50.1124 47.6704 50.1124H27.2403C25.1889 50.1124 23.598 49.2333 22.5514 47.4749C22.5096 47.4331 22.5096 47.3494 22.4677 47.2656L22.0909 46.4702H52.8198L52.4849 47.2656C52.4431 47.3912 52.4012 47.4749 52.3593 47.5587Z" fill="#B68C13"/>
<path d="M21.4627 46.6795L21.044 45.8422C19.8299 46.3864 17.6948 47.4749 16.4807 48.0192L10.1173 51.4521C8.35893 52.2475 6.60059 53.043 4.84226 53.8384C4.63294 53.9221 4.46548 54.0058 4.29802 54.0477H4.25615C4.21429 54.0477 4.17242 54.0896 4.13056 54.0896L3.08393 54.4245L2.66528 53.4197L2.28849 52.5406L3.08393 51.9545L11.1639 46.512C12.5873 45.5491 14.848 44.042 16.9831 42.6186C18.1135 41.865 20.5417 40.2323 21.4627 39.6043L21.044 37.9297C20.7928 38.0971 19.5788 38.8926 19.2857 39.06C18.3228 39.688 16.9413 40.609 15.5178 41.6138C13.3827 43.0372 11.122 44.5862 9.69861 45.5073C7.06111 47.3074 4.38175 49.1076 1.74425 50.866C0.697622 51.5777 0.404567 53.043 1.07441 54.2989C1.82798 55.7223 3.20953 56.3503 4.38175 55.8479C5.97262 55.1362 7.60535 54.3826 9.19623 53.6709L9.32182 53.6291C10.201 53.2104 11.0802 52.8336 11.9593 52.415C13.7177 51.6195 16.104 50.4055 18.4484 49.2332C19.202 48.8565 21.1278 47.8936 21.8395 47.5168L21.4627 46.6795Z" fill="#B68C13"/>
<path d="M73.7939 13.6899C72.496 11.3036 70.0679 9.37785 67.5978 8.87547C67.1373 8.74987 66.6349 8.70801 66.1744 8.70801C64.7929 8.70801 63.5369 9.12666 62.4066 10.0058C61.3181 10.8013 60.1877 11.5548 59.0992 12.2665L59.0155 12.3503C58.5969 12.6015 58.2201 12.8945 57.8014 13.1457C56.2106 14.1923 54.6615 15.2808 53.0707 16.3274V18.2951L60.3133 13.3969C60.6901 13.1457 61.0669 12.8945 61.4437 12.6433L61.5693 12.5596C61.8623 12.3921 62.1135 12.1828 62.4066 12.0153C62.8252 11.7223 63.2857 11.4292 63.7044 11.1362C64.8347 10.4663 65.9651 9.88023 67.6816 10.5082C69.8585 11.2618 72.4123 13.355 73.0822 15.8669C74.1707 19.7185 73.124 22.5653 70.0679 23.905C67.6816 24.9516 65.2115 26.082 62.8671 27.1286H62.8252C61.6949 27.631 60.5227 28.1752 59.3923 28.6776L53.0288 31.5245V33.3246C53.3219 33.1991 53.5731 33.0735 53.8661 32.9479C55.9594 31.985 58.0945 31.0639 60.1877 30.101C61.2762 29.5987 62.4066 29.0963 63.4951 28.5939L63.5788 28.552C65.9651 27.4635 68.3933 26.3332 70.9052 25.2866C73.0822 24.4074 74.0869 22.6909 74.5474 21.3931C75.4266 19.0905 75.1335 16.16 73.7939 13.6899Z" fill="#B68C13"/>
</svg>
